<?xml version="1.0" encoding="UTF-8" standalone="no"?>
<svg
   xmlns:dc="http://purl.org/dc/elements/1.1/"
   xmlns:cc="http://creativecommons.org/ns#"
   xmlns:rdf="http://www.w3.org/1999/02/22-rdf-syntax-ns#"
   xmlns:svg="http://www.w3.org/2000/svg"
   xmlns="http://www.w3.org/2000/svg"
   xmlns:xlink="http://www.w3.org/1999/xlink"
   xmlns:sodipodi="http://sodipodi.sourceforge.net/DTD/sodipodi-0.dtd"
   xmlns:inkscape="http://www.inkscape.org/namespaces/inkscape"
   width="220"
   height="150"
   viewBox="0 0 220 150"
   id="svg4389"
   version="1.1"
   inkscape:version="0.91 r13725"
   sodipodi:docname="2020-logo.svg">
  <sodipodi:namedview
     pagecolor="#ffffff"
     bordercolor="#666666"
     borderopacity="1"
     objecttolerance="10"
     gridtolerance="10"
     guidetolerance="10"
     inkscape:pageopacity="0"
     inkscape:pageshadow="2"
     inkscape:window-width="1346"
     inkscape:window-height="880"
     id="namedview132"
     showgrid="false"
     inkscape:zoom="2.9363636"
     inkscape:cx="115.25915"
     inkscape:cy="98.023219"
     inkscape:window-x="81"
     inkscape:window-y="30"
     inkscape:window-maximized="0"
     inkscape:current-layer="text4486" />
  <defs
     id="defs4391">
    <linearGradient
       id="linearGradient3893">
      <stop
         id="stop3895"
         style="stop-color:#5d5f52;stop-opacity:1"
         offset="0" />
      <stop
         id="stop3897"
         style="stop-color:#5d5f52;stop-opacity:0"
         offset="1" />
    </linearGradient>
    <linearGradient
       x1="192"
       y1="69.78524"
       x2="192"
       y2="147.44704"
       id="linearGradient3086"
       xlink:href="#linearGradient3893"
       gradientUnits="userSpaceOnUse"
       gradientTransform="matrix(1.4676034,0,0,1.4676034,390.33915,291.89359)" />
    <linearGradient
       xlink:href="#linearGradient3893-3"
       id="linearGradient4589"
       gradientUnits="userSpaceOnUse"
       gradientTransform="matrix(0.58926507,0,0,0.58926507,-5.1560919,-7.4130339)"
       x1="192"
       y1="69.78524"
       x2="192"
       y2="147.44704" />
    <linearGradient
       id="linearGradient3893-3">
      <stop
         id="stop3895-6"
         style="stop-color:#2b2a29;stop-opacity:1"
         offset="0" />
      <stop
         id="stop3897-7"
         style="stop-color:#2b2a29;stop-opacity:0"
         offset="1" />
    </linearGradient>
    <clipPath
       id="clipPath4157"
       clipPathUnits="userSpaceOnUse">
      <rect
         ry="0.489999"
         rx="38.480499"
         y="665.2193"
         x="358.57141"
         height="223.57143"
         width="365"
         id="rect4159"
         style="opacity:1;fill:#dde9af;fill-opacity:1;stroke:#445016;stroke-width:8;stroke-miterlimit:4;stroke-dasharray:none;stroke-dashoffset:0;stroke-opacity:1" />
    </clipPath>
    <linearGradient
       y2="147.44704"
       x2="192"
       y1="69.78524"
       x1="192"
       gradientTransform="matrix(2.4869149,0,0,2.4869149,779.69172,-1060.6517)"
       gradientUnits="userSpaceOnUse"
       id="linearGradient4511"
       xlink:href="#linearGradient3893-3"
       inkscape:collect="always" />
  </defs>
  <metadata
     id="metadata4394">
    <rdf:RDF>
      <cc:Work
         rdf:about="">
        <dc:format>image/svg+xml</dc:format>
        <dc:type
           rdf:resource="http://purl.org/dc/dcmitype/StillImage" />
        <dc:title></dc:title>
      </cc:Work>
    </rdf:RDF>
  </metadata>
  <g
     transform="matrix(0.23639379,0,0,0.23639379,-8.1968961,-85.124214)"
     id="layer1"
     inkscape:label="Capa 1">
    <g
       transform="translate(-765.69266,1410.8105)"
       id="g4478"
       style="display:inline">
      <path
         inkscape:connector-curvature="0"
         style="fill:url(#linearGradient4511);fill-opacity:1;fill-rule:evenodd;stroke:none"
         id="path4480"
         d="m 1269.2263,-702.98851 c -24.8434,-1.41557 -50.6305,-2.7398 -73.962,-7.83833 -1.5097,-7.55759 3.0238,-17.38325 5.4795,-23.99417 2.4557,-4.53353 7.7451,-15.39589 12.1846,-17.57003 0,-1.60633 5.9514,-6.234 7.5572,-7.27395 0,-0.2824 0,-0.47024 0,-0.65843 19.0799,-13.31994 37.6878,-18.70275 61.3973,-13.97904 12.6565,3.77774 21.4416,7.65096 32.4945,16.8122 12.2787,11.61874 21.7234,27.48905 22.8573,45.7188 -1.8897,0.37628 -5.2894,1.69974 -16.0583,4.15801 -17.2839,2.64368 -34.948,3.96516 -51.9501,4.6269 z m 81.611,-53.18027 c -3.9676,-7.46278 -3.9676,-7.46278 -7.0853,-12.46874 -5.9493,-7.65088 -12.9406,-14.26449 -18.3239,-20.9694 -3.0237,-5.8572 -4.8175,-9.54155 -5.6674,-15.11384 -0.946,-25.12612 8.1231,-48.26973 10.107,-72.16717 0,-6.99046 0,-6.99046 -0.3783,-11.52404 -1.2278,-5.10198 -2.4556,-8.40672 -2.4556,-9.63556 2.1716,-0.66508 8.4071,19.64799 9.4448,23.33175 5.6674,27.20551 11.5248,55.73182 12.5627,84.35299 1.0399,10.67283 2.5517,22.29106 2.8336,33.72238 -0.3781,0.094 -0.7538,0.28238 -1.0378,0.47027 z m -170.6853,-0.94597 c 0,-12.46866 0.2843,-24.2756 2.3618,-36.36608 2.3618,-29.565 6.5173,-59.31889 14.1685,-87.18615 1.5119,-4.2494 4.6273,-15.1131 7.0852,-17.56794 0,0.56419 0,1.13205 0.094,1.7938 -3.4018,6.32878 -2.4558,15.01832 -2.4558,22.38777 3.5895,23.80333 14.3563,50.72465 9.4449,75.6607 -1.4158,3.87185 -3.1178,7.93509 -5.5734,11.52339 -8.7851,9.35344 -16.7182,17.94832 -23.9914,28.62252 -0.094,0.37625 -0.1901,0.75439 -0.1901,1.13199 -0.3782,0 -0.6598,0 -0.9439,0 z m 85.2989,-161.01816 c -2.3404,-31.87882 -19.5411,-52.34245 -30.846,-54.7839 14.3991,-9.34663 51.5019,-10.29667 64.8801,0.85057 -22.1207,2.35074 -29.522,25.79595 -34.0341,53.9341 z m -80.8593,201.91989 c -5.5734,-2.7398 -5.1955,-5.57366 -6.2333,-10.1066 0,-21.44169 11.0508,-35.80026 25.785,-49.40312 6.1415,-6.89508 6.1415,-6.89508 7.9353,-9.44471 4.7234,-9.44739 6.3293,-16.72007 6.3293,-26.73256 -2.0777,-24.36969 -8.7851,-48.64733 -12.2807,-72.16711 0,-2.92725 0,-5.76307 0,-8.59695 1.8898,-12.37263 7.8412,-22.00679 11.3347,-33.3414 0.5676,-5.00859 0.946,-16.05904 1.5119,-20.49787 1.4179,-4.44024 3.1177,-9.2594 4.8174,-13.13112 -1.9837,-2.64577 -7.2731,-8.59558 -7.2731,-10.48484 3.2116,-0.28235 6.9892,-0.85049 10.7688,-1.98393 6.5172,0.75447 15.0183,8.31335 20.1198,13.41262 3.6836,6.61361 6.9892,13.31862 10.2948,21.53723 2.4557,8.87974 5.0075,17.75878 7.5573,26.73189 0.1883,-0.28241 0.3781,-0.57121 0.6597,-0.75376 10.109,-32.21012 10.3909,-32.39827 12.8466,-39.57756 4.8174,-10.76892 13.5085,-16.81411 24.3713,-20.40381 2.6437,0 2.6437,0 11.5228,1.04005 0,3.11802 -6.4234,6.98853 -7.1793,11.14716 5.4794,11.71293 4.9135,24.65321 6.9914,37.78098 2.5496,6.80172 6.8951,13.50875 9.7288,21.632 4.6274,30.9826 -10.7688,62.34345 -10.7688,94.17597 1.4179,8.69091 2.4557,15.02038 8.0291,23.14356 5.1954,5.00526 10.3909,10.10716 15.5863,15.20785 9.067,11.42867 22.5756,34.57227 12.2786,49.96886 -8.123,2.26747 -7.6511,-6.70764 -8.785,-11.42877 -1.3219,-3.30748 -2.5497,-6.61356 -3.7775,-9.82494 -12.9406,-21.25373 -24.5595,-31.92664 -46.7569,-40.42806 -33.5324,-9.82501 -61.7752,0.19502 -84.5387,24.36969 -6.3294,8.5015 -10.3909,16.15243 -14.1684,26.54241 -1.324,4.81777 -0.946,10.8637 -6.7073,11.61952 z m 109.5805,-243.50883 c 6.6518,0 12.0779,5.42643 12.0779,12.08038 0,6.65117 -5.4261,12.07901 -12.0779,12.07901 -6.6539,0 -12.0799,-5.42784 -12.0799,-12.07901 0,-6.65395 5.426,-12.08038 12.0799,-12.08038 z m -57.7776,0 c 6.6539,0 12.0799,5.42643 12.0799,12.08038 0,6.65117 -5.426,12.07901 -12.0799,12.07901 -6.654,0 -12.08,-5.42784 -12.08,-12.07901 0,-6.65395 5.426,-12.08038 12.08,-12.08038 z" />
      <g
         style="font-style:normal;font-weight:normal;font-size:78.56399536px;line-height:125%;font-family:sans-serif;letter-spacing:0px;word-spacing:0px;fill:#2b2a29;fill-opacity:1;stroke:none;stroke-width:1px;stroke-linecap:butt;stroke-linejoin:miter;stroke-opacity:1"
         id="text4482">
        <path
           d="m 865.69268,-614.33661 0,-4.565 q 3.68268,-0.38361 4.91024,-1.57281 1.26593,-1.22756 1.26593,-4.87189 l 0,-33.60452 q 0,-3.64433 -1.26593,-4.83353 -1.22756,-1.22756 -4.91024,-1.61117 l 0,-4.565 47.52968,0 0,12.35235 -3.8745,0 q -2.07151,-4.21975 -6.09945,-6.06109 -3.98957,-1.87971 -10.93297,-1.87971 -4.33483,0 -5.5624,0.61378 -1.1892,0.57542 -1.1892,3.22235 l 0,15.3829 5.86928,0 q 3.83614,0 5.83093,-1.53446 1.99479,-1.53445 2.49348,-4.98697 l 4.565,0 0,18.49016 -4.52664,0 q -0.38361,-3.49088 -2.53184,-5.37059 -2.14824,-1.8797 -5.83093,-1.8797 l -5.86928,0 0,15.26781 q 0,4.91025 1.41937,6.17617 1.41937,1.26592 6.02273,1.41937 l 0,4.41155 -27.31326,0 z"
           style="font-style:normal;font-variant:normal;font-weight:bold;font-stretch:normal;font-family:'Aldine721 BT';-inkscape-font-specification:'Aldine721 BT Bold';letter-spacing:-1.41692924px;fill:#2b2a29;fill-opacity:1"
           id="path4625" />
        <path
           d="m 948.78575,-624.38728 q 0,3.03055 0.6905,3.95122 0.6905,0.92067 2.60857,0.92067 0.4987,0 0.80559,0 0.30689,-0.0384 0.57542,-0.0767 l 0.0384,3.91285 -15.49798,2.03315 0,-4.21974 q -2.53184,2.10987 -5.14041,3.18399 -2.57021,1.03575 -5.21714,1.03575 -5.40895,0 -8.01752,-3.10726 -2.60857,-3.14563 -2.60857,-9.66706 l 0,-15.42125 q 0,-2.95382 -0.84395,-3.87449 -0.84395,-0.95904 -3.52924,-1.45773 l 0,-3.91286 14.84583,-0.72886 0,24.43616 q 0,3.79777 1.22756,5.21714 1.26593,1.38101 4.41156,1.38101 2.30167,0 3.5676,-0.80559 1.30428,-0.80559 1.30428,-2.26332 l 0,-18.22163 q 0,-2.57021 -0.80558,-3.60596 -0.76723,-1.07412 -2.80038,-1.53446 l 0,-3.87449 14.3855,-0.72886 0,27.42834 z"
           style="font-style:normal;font-variant:normal;font-weight:bold;font-stretch:normal;font-family:'Aldine721 BT';-inkscape-font-specification:'Aldine721 BT Bold';letter-spacing:-1.41692924px;fill:#2b2a29;fill-opacity:1"
           id="path4627" />
        <path
           d="m 956.03848,-614.33661 0,-3.91285 q 2.64693,-0.23017 3.64433,-1.22757 0.99739,-1.03575 0.99739,-3.41415 l 0,-19.79445 -4.64172,-2.3784 0,-2.49349 12.58251,-4.2581 2.53185,0 0,4.41155 q 3.3758,-2.22496 6.32962,-3.29908 2.99218,-1.11247 5.7542,-1.11247 5.52403,0 8.01752,2.95382 2.49348,2.91546 2.49348,9.47525 l 0,16.49537 q 0,2.3784 0.92068,3.41415 0.92067,0.9974 3.26071,1.22757 l 0,3.91285 -18.68197,0 0,-3.91285 q 2.14824,-0.23017 2.99219,-1.22757 0.84394,-1.03575 0.84394,-3.41415 l 0,-16.72554 q 0,-3.06891 -1.07411,-4.25811 -1.07412,-1.1892 -3.79777,-1.1892 -1.61118,0 -3.33744,0.42197 -1.6879,0.38362 -3.41416,1.15084 l 0,20.60004 q 0,2.41676 0.80559,3.41415 0.84395,0.9974 2.95382,1.22757 l 0,3.91285 -19.18066,0 z"
           style="font-style:normal;font-variant:normal;font-weight:bold;font-stretch:normal;font-family:'Aldine721 BT';-inkscape-font-specification:'Aldine721 BT Bold';letter-spacing:-1.41692924px;fill:#2b2a29;fill-opacity:1"
           id="path4629" />
        <path
           d="m 1026.1271,-618.17274 q -2.6086,2.30168 -5.3706,3.45252 -2.7237,1.15084 -5.5624,1.15084 -6.2529,0 -10.2809,-4.79517 -4.0279,-4.83353 -4.0279,-12.46743 0,-9.05327 5.0637,-14.99928 5.102,-5.98436 12.6209,-5.98436 2.0715,0 3.8361,0.6905 1.803,0.6905 3.4909,2.14823 l 0,-12.96612 -4.565,-2.45513 0,-2.41676 12.5825,-4.25811 2.4935,0 0,47.52968 q 0,2.83874 0.8439,3.60597 0.8823,0.72886 3.5293,0.80559 l 0.038,3.37579 -14.6923,2.10987 0,-4.52663 z m -0.2302,-20.06297 q 0,-4.87189 -1.4194,-6.78996 -1.4194,-1.91807 -4.8719,-1.91807 -4.0279,0 -6.0994,3.26072 -2.0715,3.22235 -2.0715,9.55197 0,5.86928 2.5702,9.39852 2.5702,3.49088 6.8666,3.49088 2.5703,0 3.7978,-1.22756 1.2276,-1.22756 1.2276,-3.79777 l 0,-11.96873 z"
           style="font-style:normal;font-variant:normal;font-weight:bold;font-stretch:normal;font-family:'Aldine721 BT';-inkscape-font-specification:'Aldine721 BT Bold';letter-spacing:-1.41692924px;fill:#2b2a29;fill-opacity:1"
           id="path4631" />
        <path
           d="m 1064.4141,-617.63568 q -2.9155,2.07151 -5.524,3.03054 -2.5702,0.95903 -5.1404,0.95903 -4.7185,0 -7.634,-2.53184 -2.9154,-2.53185 -2.9154,-6.55979 0,-4.48827 4.8719,-7.71063 4.8719,-3.22235 15.4979,-5.71583 l 0,-6.13782 q 0,-3.03054 -1.1892,-4.33483 -1.1508,-1.34264 -3.8361,-1.34264 -2.0331,0 -3.3374,0.80559 -1.3043,0.76722 -1.3043,1.95642 0,0.88231 0.6138,2.10988 0.6521,1.22756 0.6521,1.57281 0,0.76723 -2.5702,2.14824 -2.5318,1.34264 -4.6033,1.34264 -1.0742,0 -1.8798,-1.49609 -0.7672,-1.53445 -0.7672,-3.72105 0,-3.79777 3.7978,-6.17617 3.8361,-2.3784 10.089,-2.3784 8.7848,0 11.8153,2.53184 3.0306,2.53185 3.0306,9.55197 l 0,15.65142 q 0,2.10988 0.3452,2.83874 0.3836,0.69051 1.3043,0.69051 0.537,0 1.1508,-0.19181 0.6138,-0.23017 1.381,-0.65214 0,3.60596 -2.1482,5.83092 -2.1482,2.18659 -5.7158,2.18659 -2.0332,0 -3.5293,-1.03575 -1.4961,-1.07412 -2.4551,-3.22235 z m -0.844,-4.79517 0,-9.51361 q -4.9486,1.45773 -7.5955,3.45252 -2.6086,1.95643 -2.6086,4.25811 0,1.76462 1.266,2.91546 1.3042,1.15084 3.2607,1.15084 1.3043,0 2.6853,-0.53706 1.381,-0.53706 2.9921,-1.72626 z"
           style="font-style:normal;font-variant:normal;font-weight:bold;font-stretch:normal;font-family:'Aldine721 BT';-inkscape-font-specification:'Aldine721 BT Bold';letter-spacing:-1.41692924px;fill:#2b2a29;fill-opacity:1"
           id="path4633" />
        <path
           d="m 1115.6289,-621.54854 q -4.1047,4.0663 -8.1326,6.02273 -4.0279,1.95643 -8.2093,1.95643 -7.327,0 -12.1606,-5.10206 -4.7951,-5.14042 -4.7951,-13.11957 0,-8.89983 5.1788,-14.42386 5.1787,-5.52403 13.6182,-5.52403 6.0995,0 9.8972,2.64693 3.8362,2.60857 3.8362,6.71323 0,2.1866 -1.4961,3.75941 -1.4961,1.57282 -3.606,1.57282 -1.5728,0 -2.8387,-0.92068 -1.2276,-0.92067 -1.803,-2.53184 -0.1534,-0.42198 -0.422,-1.15084 -1.9564,-5.44731 -5.7158,-5.44731 -3.0306,0 -4.8719,2.64693 -1.803,2.60857 -1.803,7.02012 0,6.98176 3.3375,11.39332 3.3757,4.41155 8.6313,4.41155 2.2249,0 4.4115,-0.76723 2.1866,-0.76722 4.3732,-2.30168 l 2.5702,3.14563 z"
           style="font-style:normal;font-variant:normal;font-weight:bold;font-stretch:normal;font-family:'Aldine721 BT';-inkscape-font-specification:'Aldine721 BT Bold';letter-spacing:-1.41692924px;fill:#2b2a29;fill-opacity:1"
           id="path4635" />
        <path
           d="m 1123.342,-665.24209 q 0,-2.3784 1.7262,-4.0663 1.7263,-1.6879 4.1814,-1.6879 2.4552,0 4.1047,1.64954 1.6879,1.64954 1.6879,4.10466 0,2.49349 -1.6879,4.25811 -1.6879,1.72626 -4.1047,1.72626 -2.4551,0 -4.1814,-1.76462 -1.7262,-1.76462 -1.7262,-4.21975 z m 11.2399,42.35091 q 0,2.3784 0.9973,3.41415 1.0358,0.9974 3.6444,1.22757 l 0,3.91285 -19.8712,0 0,-3.91285 q 2.6086,-0.23017 3.606,-1.22757 0.9974,-1.03575 0.9974,-3.41415 l 0,-19.79445 -4.4499,-2.3784 0,-2.49349 12.5441,-4.2581 2.5319,0 0,28.92444 z"
           style="font-style:normal;font-variant:normal;font-weight:bold;font-stretch:normal;font-family:'Aldine721 BT';-inkscape-font-specification:'Aldine721 BT Bold';letter-spacing:-1.41692924px;fill:#2b2a29;fill-opacity:1"
           id="path4637" />
        <path
           d="m 1153.3813,-634.74483 q 0,8.01751 1.9181,12.42907 1.9564,4.37319 5.4857,4.37319 3.8361,0 5.5624,-3.10727 1.7262,-3.10727 1.7262,-10.01231 0,-7.82571 -2.0715,-12.16054 -2.0715,-4.33483 -5.7542,-4.33483 -3.4909,0 -5.1788,3.14563 -1.6879,3.10727 -1.6879,9.66706 z m 7.0969,21.17545 q -8.3628,0 -13.5032,-5.44731 -5.1404,-5.48567 -5.1404,-14.34714 0,-7.90243 5.4089,-13.15793 5.4473,-5.29386 13.6183,-5.29386 8.171,0 13.4648,5.4473 5.2939,5.40895 5.2939,13.81008 0,8.28605 -5.3706,13.65663 -5.3706,5.33223 -13.7717,5.33223 z m -7.1736,-42.46599 10.4727,-10.85626 q 1.5344,-1.61117 2.762,-2.34004 1.2275,-0.72886 2.4167,-0.72886 1.5345,0 2.4935,0.95903 0.9591,0.95903 0.9591,2.49349 0,1.22756 -0.6906,2.07151 -0.6905,0.84395 -2.9154,2.03315 l -12.0071,6.36798 -3.4909,0 z"
           style="font-style:normal;font-variant:normal;font-weight:bold;font-stretch:normal;font-family:'Aldine721 BT';-inkscape-font-specification:'Aldine721 BT Bold';letter-spacing:-1.41692924px;fill:#2b2a29;fill-opacity:1"
           id="path4639" />
        <path
           d="m 1182.7685,-614.33661 0,-3.91285 q 2.647,-0.23017 3.6444,-1.22757 0.9974,-1.03575 0.9974,-3.41415 l 0,-19.79445 -4.6418,-2.3784 0,-2.49349 12.5826,-4.2581 2.5318,0 0,4.41155 q 3.3758,-2.22496 6.3296,-3.29908 2.9922,-1.11247 5.7542,-1.11247 5.524,0 8.0175,2.95382 2.4935,2.91546 2.4935,9.47525 l 0,16.49537 q 0,2.3784 0.9207,3.41415 0.9207,0.9974 3.2607,1.22757 l 0,3.91285 -18.682,0 0,-3.91285 q 2.1483,-0.23017 2.9922,-1.22757 0.844,-1.03575 0.844,-3.41415 l 0,-16.72554 q 0,-3.06891 -1.0741,-4.25811 -1.0742,-1.1892 -3.7978,-1.1892 -1.6112,0 -3.3375,0.42197 -1.6879,0.38362 -3.4141,1.15084 l 0,20.60004 q 0,2.41676 0.8056,3.41415 0.8439,0.9974 2.9538,1.22757 l 0,3.91285 -19.1807,0 z"
           style="font-style:normal;font-variant:normal;font-weight:bold;font-stretch:normal;font-family:'Aldine721 BT';-inkscape-font-specification:'Aldine721 BT Bold';letter-spacing:-1.41692924px;fill:#2b2a29;fill-opacity:1"
           id="path4641" />
        <path
           d="m 1245.686,-614.33661 0.038,-4.565 q 2.6085,-0.0767 4.0279,-1.49609 1.4194,-1.45773 2.0715,-4.71844 l 6.8283,-32.41532 q 0.077,-0.34525 0.1919,-0.95903 0.3068,-1.45774 0.3068,-1.87971 0,-2.07151 -1.7646,-3.3758 -1.7646,-1.30428 -4.987,-1.64953 l -0.038,-4.565 19.4875,0 q 0.077,2.95382 0.4987,5.40895 0.4604,2.41676 1.3043,4.64172 l 9.6671,25.39519 10.7795,-26.00898 q 0.6905,-1.68789 1.0358,-4.0663 0.3836,-2.3784 0.4603,-5.37058 l 18.7587,0 0,4.565 -0.4603,0 q -2.4935,0 -3.9513,1.49609 -1.4577,1.49609 -1.4577,4.0663 0,0.53706 0.038,1.1892 0.077,0.65214 0.1918,1.49609 l 4.6417,30.6507 q 0.6521,4.29647 2.0715,5.79256 1.4194,1.49609 4.6801,1.80298 l 0,4.565 -25.165,0 0,-4.565 0.4987,0 q 2.4934,0 3.6826,-1.15084 1.1892,-1.15084 1.1892,-3.5676 0,-0.6905 -0.115,-1.57281 -0.077,-0.88231 -0.1918,-1.80299 l -3.7978,-24.8965 -12.3907,29.61495 q -1.0358,2.53184 -1.7263,4.44991 -0.6905,1.87971 -1.1125,3.49088 l -4.1813,0 q -0.2686,-1.45773 -1.0742,-3.83613 -0.7672,-2.3784 -2.0715,-5.7542 l -10.6644,-27.96541 -5.3323,25.04995 q -0.2685,1.1892 -0.4219,2.14823 -0.1535,0.92067 -0.1535,1.49609 0,2.10988 1.3043,3.10727 1.3043,0.95904 4.6034,1.1892 l 0,4.565 -17.301,0 z"
           style="font-style:normal;font-variant:normal;font-weight:bold;font-stretch:normal;font-family:'Aldine721 BT';-inkscape-font-specification:'Aldine721 BT Bold';letter-spacing:-1.41692924px;fill:#2b2a29;fill-opacity:1"
           id="path4643" />
        <path
           d="m 1327.2446,-665.24209 q 0,-2.3784 1.7263,-4.0663 1.7263,-1.6879 4.1814,-1.6879 2.4551,0 4.1046,1.64954 1.6879,1.64954 1.6879,4.10466 0,2.49349 -1.6879,4.25811 -1.6879,1.72626 -4.1046,1.72626 -2.4551,0 -4.1814,-1.76462 -1.7263,-1.76462 -1.7263,-4.21975 z m 11.2399,42.35091 q 0,2.3784 0.9974,3.41415 1.0358,0.9974 3.6443,1.22757 l 0,3.91285 -19.8711,0 0,-3.91285 q 2.6085,-0.23017 3.6059,-1.22757 0.9974,-1.03575 0.9974,-3.41415 l 0,-19.79445 -4.4499,-2.3784 0,-2.49349 12.5442,-4.2581 2.5318,0 0,28.92444 z"
           style="font-style:normal;font-variant:normal;font-weight:bold;font-stretch:normal;font-family:'Aldine721 BT';-inkscape-font-specification:'Aldine721 BT Bold';letter-spacing:-1.41692924px;fill:#2b2a29;fill-opacity:1"
           id="path4645" />
        <path
           d="m 1362.3093,-647.25063 q -2.4551,0 -3.8361,1.95643 -1.3427,1.91807 -1.3427,5.40895 0,3.49088 1.381,5.44731 1.3811,1.95642 3.7978,1.95642 2.4935,0 3.8745,-1.95642 1.4194,-1.95643 1.4194,-5.44731 0,-3.52924 -1.381,-5.44731 -1.381,-1.91807 -3.9129,-1.91807 z m -7.8257,34.33339 q -0.8056,0.72887 -1.1892,1.53445 -0.3836,0.84395 -0.3836,1.84135 0,2.68529 2.1866,3.98957 2.2249,1.34265 6.5981,1.34265 6.0995,0 9.0917,-1.34265 2.9922,-1.30428 2.9922,-3.98957 0,-2.14824 -2.4168,-2.91546 -2.4168,-0.76723 -12.0071,-0.76723 -1.0741,0 -2.3017,0.0767 -1.2275,0.0767 -2.5702,0.23017 z m -3.8745,-1.80298 q -1.7646,-1.80298 -2.6853,-3.49088 -0.9207,-1.6879 -0.9207,-3.18399 0,-2.49349 1.5729,-4.48828 1.5728,-1.99479 4.7184,-3.45252 -3.0305,-2.07151 -4.565,-4.71844 -1.4961,-2.64693 -1.4961,-5.83092 0,-5.37059 3.8361,-8.55458 3.8745,-3.22235 10.4727,-3.22235 1.9564,0 5.0253,0.38361 3.0689,0.38362 8.3244,1.26593 l 7.4805,0 0,6.36798 -6.2145,0 q 0.4219,1.22756 0.6137,2.30168 0.2302,1.03575 0.2302,1.95643 0,5.17877 -4.0279,8.43949 -3.9896,3.26071 -10.5878,3.26071 -1.3042,0 -2.6469,-0.11508 -1.3426,-0.11509 -2.6853,-0.34526 -0.422,0.53706 -0.6521,1.11248 -0.1918,0.53706 -0.1918,1.15084 0,1.53446 1.3426,2.14824 1.3427,0.61378 5.3322,0.61378 11.0865,0 15.2295,2.34004 4.1814,2.30168 4.1814,7.94079 0,6.2529 -5.3323,9.97395 -5.3322,3.75941 -14.3855,3.75941 -8.5929,0 -13.0428,-2.14824 -4.4116,-2.14823 -4.4116,-6.32962 0,-2.07151 1.3427,-3.83613 1.381,-1.76462 4.143,-3.29907 z"
           style="font-style:normal;font-variant:normal;font-weight:bold;font-stretch:normal;font-family:'Aldine721 BT';-inkscape-font-specification:'Aldine721 BT Bold';letter-spacing:-1.41692924px;fill:#2b2a29;fill-opacity:1"
           id="path4647" />
        <path
           d="m 1418.8947,-624.38728 q 0,3.03055 0.6905,3.95122 0.6905,0.92067 2.6086,0.92067 0.4987,0 0.8056,0 0.3069,-0.0384 0.5754,-0.0767 l 0.038,3.91285 -15.498,2.03315 0,-4.21974 q -2.5319,2.10987 -5.1404,3.18399 -2.5702,1.03575 -5.2172,1.03575 -5.4089,0 -8.0175,-3.10726 -2.6086,-3.14563 -2.6086,-9.66706 l 0,-15.42125 q 0,-2.95382 -0.8439,-3.87449 -0.844,-0.95904 -3.5292,-1.45773 l 0,-3.91286 14.8458,-0.72886 0,24.43616 q 0,3.79777 1.2276,5.21714 1.2659,1.38101 4.4115,1.38101 2.3017,0 3.5676,-0.80559 1.3043,-0.80559 1.3043,-2.26332 l 0,-18.22163 q 0,-2.57021 -0.8056,-3.60596 -0.7672,-1.07412 -2.8004,-1.53446 l 0,-3.87449 14.3855,-0.72886 0,27.42834 z"
           style="font-style:normal;font-variant:normal;font-weight:bold;font-stretch:normal;font-family:'Aldine721 BT';-inkscape-font-specification:'Aldine721 BT Bold';letter-spacing:-1.41692924px;fill:#2b2a29;fill-opacity:1"
           id="path4649" />
        <path
           d="m 1460.1739,-635.24353 -22.8633,0 0,0.23017 q 0,5.56239 2.9154,9.09163 2.9155,3.49088 7.4038,3.49088 1.9564,0 4.3731,-0.76723 2.4552,-0.80558 5.9844,-2.60857 l 2.6853,2.91547 q -4.6034,5.06369 -8.3628,7.17356 -3.721,2.07151 -8.0942,2.07151 -7.4805,0 -12.314,-5.40894 -4.7952,-5.40895 -4.7952,-13.96352 0,-8.24769 4.9487,-13.46483 4.9486,-5.2555 12.8126,-5.2555 6.7516,0 10.8947,4.48827 4.1813,4.44992 4.4115,12.0071 z m -22.825,-3.98958 12.4675,0 q 0,-0.19181 0.038,-0.57542 0.038,-0.42197 0.038,-0.61378 0,-3.26071 -1.7646,-5.0637 -1.7263,-1.84134 -4.8336,-1.84134 -2.5702,0 -4.2581,2.22496 -1.6495,2.22495 -1.6879,5.86928 z"
           style="font-style:normal;font-variant:normal;font-weight:bold;font-stretch:normal;font-family:'Aldine721 BT';-inkscape-font-specification:'Aldine721 BT Bold';letter-spacing:-1.41692924px;fill:#2b2a29;fill-opacity:1"
           id="path4651" />
        <path
           d="m 1479.1269,-622.89118 q 0,2.41676 1.0357,3.41415 1.0358,0.95904 3.7211,1.15084 l 0,3.98958 -20.2548,0 0,-3.98958 q 2.6853,-0.1918 3.7211,-1.1892 1.0741,-0.99739 1.0741,-3.37579 l 0,-39.05183 -4.4116,-2.45513 0,-2.41676 12.5825,-4.25811 2.5319,0 0,48.18183 z"
           style="font-style:normal;font-variant:normal;font-weight:bold;font-stretch:normal;font-family:'Aldine721 BT';-inkscape-font-specification:'Aldine721 BT Bold';letter-spacing:-1.41692924px;fill:#2b2a29;fill-opacity:1"
           id="path4653" />
        <path
           d="m 1531.073,-669.96053 0,4.48827 q -3.6444,0.42198 -4.8719,1.61118 -1.2276,1.1892 -1.2276,4.91025 l 0,30.72742 q 0,6.13781 1.7646,7.82571 1.803,1.64954 7.327,1.64954 6.9051,0 11.0097,-2.49349 4.1047,-2.53185 8.0943,-9.12999 l 4.3348,0 -3.4141,16.03503 -48.9875,0 0,-4.565 q 3.6827,-0.38361 4.9103,-1.57281 1.2659,-1.22756 1.2659,-4.87189 l 0,-33.60452 q 0,-3.68269 -1.2275,-4.87189 -1.2276,-1.22756 -4.9487,-1.64954 l 0,-4.48827 25.9707,0 z"
           style="font-style:normal;font-variant:normal;font-weight:bold;font-stretch:normal;font-family:'Aldine721 BT';-inkscape-font-specification:'Aldine721 BT Bold';letter-spacing:-1.41692924px;fill:#2b2a29;fill-opacity:1"
           id="path4655" />
        <path
           d="m 1564.3731,-665.24209 q 0,-2.3784 1.7262,-4.0663 1.7263,-1.6879 4.1814,-1.6879 2.4551,0 4.1047,1.64954 1.6879,1.64954 1.6879,4.10466 0,2.49349 -1.6879,4.25811 -1.6879,1.72626 -4.1047,1.72626 -2.4551,0 -4.1814,-1.76462 -1.7262,-1.76462 -1.7262,-4.21975 z m 11.2398,42.35091 q 0,2.3784 0.9974,3.41415 1.0358,0.9974 3.6443,1.22757 l 0,3.91285 -19.8711,0 0,-3.91285 q 2.6085,-0.23017 3.6059,-1.22757 0.9974,-1.03575 0.9974,-3.41415 l 0,-19.79445 -4.4499,-2.3784 0,-2.49349 12.5442,-4.2581 2.5318,0 0,28.92444 z"
           style="font-style:normal;font-variant:normal;font-weight:bold;font-stretch:normal;font-family:'Aldine721 BT';-inkscape-font-specification:'Aldine721 BT Bold';letter-spacing:-1.41692924px;fill:#2b2a29;fill-opacity:1"
           id="path4657" />
        <path
           d="m 1598.0568,-622.89118 q 0,2.41676 1.0357,3.41415 1.0358,0.95904 3.7211,1.15084 l 0,3.98958 -20.2548,0 0,-3.98958 q 2.6853,-0.1918 3.721,-1.1892 1.0741,-0.99739 1.0741,-3.37579 l 0,-39.05183 -4.4115,-2.45513 0,-2.41676 12.5825,-4.25811 2.5319,0 0,48.18183 z"
           style="font-style:normal;font-variant:normal;font-weight:bold;font-stretch:normal;font-family:'Aldine721 BT';-inkscape-font-specification:'Aldine721 BT Bold';letter-spacing:-1.41692924px;fill:#2b2a29;fill-opacity:1"
           id="path4659" />
        <path
           d="m 1620.5773,-622.89118 q 0,2.41676 1.0357,3.41415 1.0358,0.95904 3.7211,1.15084 l 0,3.98958 -20.2548,0 0,-3.98958 q 2.6853,-0.1918 3.721,-1.1892 1.0742,-0.99739 1.0742,-3.37579 l 0,-39.05183 -4.4116,-2.45513 0,-2.41676 12.5825,-4.25811 2.5319,0 0,48.18183 z"
           style="font-style:normal;font-variant:normal;font-weight:bold;font-stretch:normal;font-family:'Aldine721 BT';-inkscape-font-specification:'Aldine721 BT Bold';letter-spacing:-1.41692924px;fill:#2b2a29;fill-opacity:1"
           id="path4661" />
        <path
           d="m 1639.4535,-634.74483 q 0,8.01751 1.9181,12.42907 1.9564,4.37319 5.4856,4.37319 3.8362,0 5.5624,-3.10727 1.7263,-3.10727 1.7263,-10.01231 0,-7.82571 -2.0715,-12.16054 -2.0715,-4.33483 -5.7542,-4.33483 -3.4909,0 -5.1788,3.14563 -1.6879,3.10727 -1.6879,9.66706 z m 7.0969,21.17545 q -8.3628,0 -13.5032,-5.44731 -5.1405,-5.48567 -5.1405,-14.34714 0,-7.90243 5.409,-13.15793 5.4473,-5.29386 13.6183,-5.29386 8.1709,0 13.4648,5.4473 5.2939,5.40895 5.2939,13.81008 0,8.28605 -5.3706,13.65663 -5.3706,5.33223 -13.7717,5.33223 z"
           style="font-style:normal;font-variant:normal;font-weight:bold;font-stretch:normal;font-family:'Aldine721 BT';-inkscape-font-specification:'Aldine721 BT Bold';letter-spacing:-1.41692924px;fill:#2b2a29;fill-opacity:1"
           id="path4663" />
      </g>
      <g
         style="font-style:normal;font-weight:normal;font-size:39.91386414px;line-height:125%;font-family:sans-serif;letter-spacing:0px;word-spacing:0px;fill:#2b2a29;fill-opacity:1;stroke:none;stroke-width:1px;stroke-linecap:butt;stroke-linejoin:miter;stroke-opacity:1"
         id="text4486">
        <path
           d="m 943.36853,-558.96289 0.0183,-2.17896 q 1.24512,-0.0366 1.92261,-0.71411 0.67749,-0.6958 0.98877,-2.25219 l 3.25928,-15.47242 q 0.0366,-0.16479 0.0915,-0.45776 0.14648,-0.6958 0.14648,-0.89722 0,-0.98877 -0.84228,-1.61132 -0.84229,-0.62256 -2.38037,-0.78736 l -0.0183,-2.17895 9.30175,0 q 0.0366,1.40991 0.23804,2.58178 0.21973,1.15357 0.62256,2.21558 l 4.61426,12.12158 5.14526,-12.41455 q 0.32959,-0.80566 0.49439,-1.94092 0.1831,-1.13525 0.21972,-2.56347 l 8.95386,0 0,2.17895 -0.21973,0 q -1.19018,0 -1.88598,0.71411 -0.6958,0.71411 -0.6958,1.94092 0,0.25635 0.0183,0.56763 0.0366,0.31128 0.0915,0.71411 l 2.21557,14.63013 q 0.31128,2.05078 0.98877,2.76489 0.67749,0.71411 2.23389,0.86059 l 0,2.17896 -12.01172,0 0,-2.17896 0.23804,0 q 1.19019,0 1.75781,-0.54931 0.56763,-0.54932 0.56763,-1.70288 0,-0.32959 -0.0549,-0.75074 -0.0366,-0.42114 -0.0916,-0.86059 l -1.81274,-11.88355 -5.91431,14.13575 q -0.49438,1.20849 -0.82397,2.12402 -0.32959,0.89722 -0.53101,1.66626 l -1.99585,0 q -0.12817,-0.6958 -0.51269,-1.83106 -0.36621,-1.13525 -0.98877,-2.74658 l -5.09033,-13.34839 -2.54517,11.95679 q -0.12817,0.56763 -0.20142,1.02539 -0.0732,0.43945 -0.0732,0.71411 0,1.00708 0.62256,1.48316 0.62256,0.45776 2.19727,0.56762 l 0,2.17896 -8.25806,0 z"
           style="font-style:normal;font-variant:normal;font-weight:bold;font-stretch:normal;font-size:37.5px;font-family:'Aldine721 BT';-inkscape-font-specification:'Aldine721 BT Bold';letter-spacing:0.15000001px;fill:#2b2a29;fill-opacity:1"
           id="path4562" />
        <path
           d="m 983.12424,-583.26099 q 0,-1.13525 0.82398,-1.94091 0.82397,-0.80567 1.99585,-0.80567 1.17187,0 1.95923,0.78736 0.80566,0.78735 0.80566,1.95922 0,1.19019 -0.80566,2.03247 -0.80567,0.82398 -1.95923,0.82398 -1.17188,0 -1.99585,-0.84229 -0.82398,-0.84228 -0.82398,-2.01416 z m 5.36499,20.21485 q 0,1.13525 0.47608,1.62964 0.49438,0.47607 1.7395,0.58593 l 0,1.86768 -9.48486,0 0,-1.86768 q 1.24512,-0.10986 1.72119,-0.58593 0.47607,-0.49439 0.47607,-1.62964 l 0,-9.44824 -2.12402,-1.13526 0,-1.19018 5.98755,-2.03247 1.20849,0 0,13.80615 z"
           style="font-style:normal;font-variant:normal;font-weight:bold;font-stretch:normal;font-size:37.5px;font-family:'Aldine721 BT';-inkscape-font-specification:'Aldine721 BT Bold';letter-spacing:0.15000001px;fill:#2b2a29;fill-opacity:1"
           id="path4564" />
        <path
           d="m 992.85066,-558.96289 0,-1.86768 q 1.26343,-0.10986 1.7395,-0.58593 0.47607,-0.49439 0.47607,-1.62964 l 0,-9.44824 -2.21557,-1.13526 0,-1.19018 6.00586,-2.03247 1.20848,0 0,2.10571 q 1.6113,-1.06201 3.0213,-1.57471 1.4282,-0.531 2.7465,-0.531 2.6368,0 3.8269,1.40991 1.1902,1.3916 1.1902,4.5227 l 0,7.87354 q 0,1.13525 0.4395,1.62964 0.4394,0.47607 1.5564,0.58593 l 0,1.86768 -8.9173,0 0,-1.86768 q 1.0254,-0.10986 1.4283,-0.58593 0.4028,-0.49439 0.4028,-1.62964 l 0,-7.9834 q 0,-1.46484 -0.5127,-2.03247 -0.5127,-0.56763 -1.8127,-0.56763 -0.7691,0 -1.5931,0.20142 -0.8056,0.1831 -1.6296,0.54931 l 0,9.83277 q 0,1.15356 0.3845,1.62964 0.4029,0.47607 1.4099,0.58593 l 0,1.86768 -9.15524,0 z"
           style="font-style:normal;font-variant:normal;font-weight:bold;font-stretch:normal;font-size:37.5px;font-family:'Aldine721 BT';-inkscape-font-specification:'Aldine721 BT Bold';letter-spacing:0.15000001px;fill:#2b2a29;fill-opacity:1"
           id="path4566" />
        <path
           d="m 1017.1156,-583.26099 q 0,-1.13525 0.824,-1.94091 0.824,-0.80567 1.9959,-0.80567 1.1718,0 1.9592,0.78736 0.8057,0.78735 0.8057,1.95922 0,1.19019 -0.8057,2.03247 -0.8057,0.82398 -1.9592,0.82398 -1.1719,0 -1.9959,-0.84229 -0.824,-0.84228 -0.824,-2.01416 z m 5.365,20.21485 q 0,1.13525 0.4761,1.62964 0.4944,0.47607 1.7395,0.58593 l 0,1.86768 -9.4849,0 0,-1.86768 q 1.2452,-0.10986 1.7212,-0.58593 0.4761,-0.49439 0.4761,-1.62964 l 0,-9.44824 -2.124,-1.13526 0,-1.19018 5.9875,-2.03247 1.2085,0 0,13.80615 z"
           style="font-style:normal;font-variant:normal;font-weight:bold;font-stretch:normal;font-size:37.5px;font-family:'Aldine721 BT';-inkscape-font-specification:'Aldine721 BT Bold';letter-spacing:0.15000001px;fill:#2b2a29;fill-opacity:1"
           id="path4568" />
        <path
           d="m 1027.4829,-560.5376 0,-4.04663 1.8128,0 q 0.5493,1.66626 1.7578,2.65503 1.2085,0.97046 2.655,0.97046 1.2818,0 2.179,-0.60425 0.8972,-0.62256 0.8972,-1.44653 0,-1.30005 -2.7283,-2.2522 -1.0254,-0.36621 -1.6113,-0.60425 -3.0396,-1.19018 -4.1565,-2.41699 -1.0986,-1.24512 -1.0986,-3.16772 0,-2.36206 1.9775,-3.93677 1.9775,-1.57471 5.072,-1.57471 1.355,0 2.6917,0.32959 1.355,0.31128 2.7832,0.98877 l 0,3.73535 -1.648,0 q -0.5676,-1.51977 -1.4831,-2.27051 -0.9156,-0.75073 -2.1973,-0.75073 -1.1352,0 -1.8677,0.58594 -0.7141,0.56763 -0.7141,1.46484 0,1.15357 2.8748,2.2522 0.6225,0.23804 0.9704,0.36621 3.4058,1.31836 4.4312,2.50855 1.0254,1.19018 1.0254,3.16772 0,2.63672 -1.9043,4.28467 -1.9043,1.62964 -4.9988,1.62964 -1.7944,0 -3.4607,-0.45777 -1.6662,-0.47607 -3.2593,-1.40991 z"
           style="font-style:normal;font-variant:normal;font-weight:bold;font-stretch:normal;font-size:37.5px;font-family:'Aldine721 BT';-inkscape-font-specification:'Aldine721 BT Bold';letter-spacing:0.15000001px;fill:#2b2a29;fill-opacity:1"
           id="path4570" />
        <path
           d="m 1054.4579,-559.64038 q -1.3001,0.54932 -2.4353,0.82397 -1.1353,0.27466 -2.179,0.27466 -2.4536,0 -3.424,-1.35498 -0.9522,-1.35498 -0.9522,-5.0354 l 0,-9.5581 -2.1057,0 0,-1.79444 5.8777,-5.51147 1.1719,0 0,5.29175 3.9733,0 0,2.01416 -3.9733,0 0,10.01586 q 0,1.64795 0.5127,2.16065 0.5126,0.49438 1.9592,0.49438 0.4028,0 0.7873,-0.0183 0.4029,-0.0366 0.7874,-0.0732 l 0,2.27051 z"
           style="font-style:normal;font-variant:normal;font-weight:bold;font-stretch:normal;font-size:37.5px;font-family:'Aldine721 BT';-inkscape-font-specification:'Aldine721 BT Bold';letter-spacing:0.15000001px;fill:#2b2a29;fill-opacity:1"
           id="path4572" />
        <path
           d="m 1072.9367,-568.94214 -10.913,0 0,0.10986 q 0,2.65503 1.3916,4.3396 1.3916,1.66626 3.5339,1.66626 0.9338,0 2.0874,-0.36621 1.1719,-0.38452 2.8564,-1.24511 l 1.2818,1.3916 q -2.1973,2.41699 -3.9917,3.42407 -1.7761,0.98877 -3.8635,0.98877 -3.5706,0 -5.8777,-2.58179 -2.2888,-2.58178 -2.2888,-6.66504 0,-3.93676 2.362,-6.427 2.3621,-2.50854 6.1157,-2.50854 3.2227,0 5.2002,2.14233 1.9959,2.12402 2.1057,5.7312 z m -10.8947,-1.9043 5.9509,0 q 0,-0.0915 0.018,-0.27465 0.018,-0.20142 0.018,-0.29297 0,-1.5564 -0.8423,-2.41699 -0.8239,-0.87891 -2.3071,-0.87891 -1.2268,0 -2.0325,1.06201 -0.7873,1.06201 -0.8056,2.80151 z"
           style="font-style:normal;font-variant:normal;font-weight:bold;font-stretch:normal;font-size:37.5px;font-family:'Aldine721 BT';-inkscape-font-specification:'Aldine721 BT Bold';letter-spacing:0.15000001px;fill:#2b2a29;fill-opacity:1"
           id="path4574" />
        <path
           d="m 1082.8829,-563.35742 q 0,1.50146 0.4944,1.99585 0.4944,0.49438 1.8676,0.531 l 0,1.86768 -9.613,0 0,-1.86768 q 1.2634,-0.10986 1.7395,-0.58593 0.4761,-0.49439 0.4761,-1.62964 l 0,-9.44824 -2.179,-1.13526 0,-1.19018 6.0059,-2.03247 1.2085,0 0,2.74658 q 1.3,-1.3916 2.1423,-1.92261 0.8606,-0.53101 1.6846,-0.53101 1.1719,0 1.9043,0.78736 0.7507,0.76904 0.7507,1.99585 0,1.17187 -0.7873,2.21557 -0.7691,1.0437 -1.4649,1.0437 -0.2563,0 -1.2268,-0.97045 -0.9704,-0.97046 -1.6296,-0.97046 -0.6043,0 -0.9888,0.51269 -0.3845,0.49439 -0.3845,1.31836 l 0,7.26929 z"
           style="font-style:normal;font-variant:normal;font-weight:bold;font-stretch:normal;font-size:37.5px;font-family:'Aldine721 BT';-inkscape-font-specification:'Aldine721 BT Bold';letter-spacing:0.15000001px;fill:#2b2a29;fill-opacity:1"
           id="path4576" />
        <path
           d="m 1092.4262,-583.26099 q 0,-1.13525 0.824,-1.94091 0.8239,-0.80567 1.9958,-0.80567 1.1719,0 1.9592,0.78736 0.8057,0.78735 0.8057,1.95922 0,1.19019 -0.8057,2.03247 -0.8056,0.82398 -1.9592,0.82398 -1.1719,0 -1.9958,-0.84229 -0.824,-0.84228 -0.824,-2.01416 z m 5.365,20.21485 q 0,1.13525 0.4761,1.62964 0.4943,0.47607 1.7395,0.58593 l 0,1.86768 -9.4849,0 0,-1.86768 q 1.2451,-0.10986 1.7212,-0.58593 0.4761,-0.49439 0.4761,-1.62964 l 0,-9.44824 -2.1241,-1.13526 0,-1.19018 5.9876,-2.03247 1.2085,0 0,13.80615 z"
           style="font-style:normal;font-variant:normal;font-weight:bold;font-stretch:normal;font-size:37.5px;font-family:'Aldine721 BT';-inkscape-font-specification:'Aldine721 BT Bold';letter-spacing:0.15000001px;fill:#2b2a29;fill-opacity:1"
           id="path4578" />
        <path
           d="m 1107.5909,-568.7041 q 0,3.8269 0.9155,5.93262 0.9338,2.0874 2.6184,2.0874 1.831,0 2.655,-1.48316 0.824,-1.48315 0.824,-4.77905 0,-3.73535 -0.9888,-5.80444 -0.9887,-2.06909 -2.7466,-2.06909 -1.6662,0 -2.4719,1.50146 -0.8056,1.48315 -0.8056,4.61426 z m 3.3874,10.10742 q -3.9917,0 -6.4453,-2.6001 -2.4536,-2.61841 -2.4536,-6.84814 0,-3.77197 2.5818,-6.28052 2.6001,-2.52685 6.5002,-2.52685 3.9002,0 6.427,2.60009 2.5269,2.58179 2.5269,6.5918 0,3.95508 -2.5635,6.51855 -2.5635,2.54517 -6.5735,2.54517 z"
           style="font-style:normal;font-variant:normal;font-weight:bold;font-stretch:normal;font-size:37.5px;font-family:'Aldine721 BT';-inkscape-font-specification:'Aldine721 BT Bold';letter-spacing:0.15000001px;fill:#2b2a29;fill-opacity:1"
           id="path4580" />
        <path
           d="m 1144.0542,-560.79395 q -1.2451,1.09864 -2.5635,1.64795 -1.3001,0.54932 -2.655,0.54932 -2.9847,0 -4.9073,-2.28882 -1.9226,-2.30713 -1.9226,-5.95093 0,-4.32128 2.417,-7.15942 2.4353,-2.85644 6.0242,-2.85644 0.9888,0 1.831,0.32958 0.8606,0.32959 1.6663,1.0254 l 0,-6.18897 -2.1789,-1.17187 0,-1.15357 6.0058,-2.03247 1.1902,0 0,22.68677 q 0,1.35498 0.4028,1.72119 0.4212,0.3479 1.6846,0.38452 l 0.018,1.61133 -7.0129,1.00708 0,-2.16065 z m -0.1099,-9.57641 q 0,-2.32544 -0.6775,-3.24097 -0.6775,-0.91553 -2.3254,-0.91553 -1.9226,0 -2.9114,1.5564 -0.9888,1.53809 -0.9888,4.55933 0,2.80151 1.2268,4.48608 1.2268,1.66626 3.2776,1.66626 1.2268,0 1.8128,-0.58594 0.5859,-0.58593 0.5859,-1.81274 l 0,-5.71289 z"
           style="font-style:normal;font-variant:normal;font-weight:bold;font-stretch:normal;font-size:37.5px;font-family:'Aldine721 BT';-inkscape-font-specification:'Aldine721 BT Bold';letter-spacing:0.15000001px;fill:#2b2a29;fill-opacity:1"
           id="path4582" />
        <path
           d="m 1169.2713,-568.94214 -10.9131,0 0,0.10986 q 0,2.65503 1.3916,4.3396 1.3916,1.66626 3.534,1.66626 0.9338,0 2.0874,-0.36621 1.1718,-0.38452 2.8564,-1.24511 l 1.2818,1.3916 q -2.1973,2.41699 -3.9917,3.42407 -1.7762,0.98877 -3.8636,0.98877 -3.5705,0 -5.8777,-2.58179 -2.2888,-2.58178 -2.2888,-6.66504 0,-3.93676 2.3621,-6.427 2.362,-2.50854 6.1157,-2.50854 3.2227,0 5.2002,2.14233 1.9959,2.12402 2.1057,5.7312 z m -10.8948,-1.9043 5.951,0 q 0,-0.0915 0.018,-0.27465 0.018,-0.20142 0.018,-0.29297 0,-1.5564 -0.8423,-2.41699 -0.824,-0.87891 -2.3071,-0.87891 -1.2268,0 -2.0325,1.06201 -0.7873,1.06201 -0.8057,2.80151 z"
           style="font-style:normal;font-variant:normal;font-weight:bold;font-stretch:normal;font-size:37.5px;font-family:'Aldine721 BT';-inkscape-font-specification:'Aldine721 BT Bold';letter-spacing:0.15000001px;fill:#2b2a29;fill-opacity:1"
           id="path4584" />
        <path
           d="m 1181.6197,-558.96289 0,-2.17896 q 1.7578,-0.1831 2.3437,-0.75073 0.6043,-0.58594 0.6043,-2.32544 l 0,-16.04004 q 0,-1.7395 -0.6043,-2.30713 -0.5859,-0.58593 -2.3437,-0.76904 l 0,-2.17895 20.8374,0 0,5.47485 -2.0142,0 q -0.7874,-1.77612 -2.2156,-2.58179 -1.4282,-0.82397 -3.7536,-0.82397 -2.1607,0 -2.7649,0.29297 -0.6043,0.27466 -0.6043,1.5747 l 0,7.34253 2.8015,0 q 1.8311,0 2.7832,-0.73242 0.9522,-0.73242 1.1902,-2.38037 l 2.179,0 0,8.82568 -2.1607,0 q -0.1831,-1.66626 -1.2085,-2.56347 -1.0254,-0.89722 -2.7832,-0.89722 l -2.8015,0 0,7.2876 q 0,1.75781 0.7324,2.47192 0.7508,0.71411 2.6734,0.71411 2.5452,0 4.5776,-1.17187 2.0325,-1.17188 3.3692,-3.40576 l 2.1057,0 -1.5747,7.1228 -21.3684,0 z"
           style="font-style:normal;font-variant:normal;font-weight:bold;font-stretch:normal;font-size:37.5px;font-family:'Aldine721 BT';-inkscape-font-specification:'Aldine721 BT Bold';letter-spacing:0.15000001px;fill:#2b2a29;fill-opacity:1"
           id="path4586" />
        <path
           d="m 1218.6288,-560.79395 q -1.2451,1.09864 -2.5635,1.64795 -1.3,0.54932 -2.655,0.54932 -2.9846,0 -4.9072,-2.28882 -1.9227,-2.30713 -1.9227,-5.95093 0,-4.32128 2.417,-7.15942 2.4353,-2.85644 6.0242,-2.85644 0.9888,0 1.8311,0.32958 0.8606,0.32959 1.6662,1.0254 l 0,-6.18897 -2.1789,-1.17187 0,-1.15357 6.0058,-2.03247 1.1902,0 0,22.68677 q 0,1.35498 0.4028,1.72119 0.4212,0.3479 1.6846,0.38452 l 0.018,1.61133 -7.0129,1.00708 0,-2.16065 z m -0.1099,-9.57641 q 0,-2.32544 -0.6775,-3.24097 -0.6775,-0.91553 -2.3254,-0.91553 -1.9226,0 -2.9114,1.5564 -0.9888,1.53809 -0.9888,4.55933 0,2.80151 1.2269,4.48608 1.2268,1.66626 3.2775,1.66626 1.2268,0 1.8128,-0.58594 0.5859,-0.58593 0.5859,-1.81274 l 0,-5.71289 z"
           style="font-style:normal;font-variant:normal;font-weight:bold;font-stretch:normal;font-size:37.5px;font-family:'Aldine721 BT';-inkscape-font-specification:'Aldine721 BT Bold';letter-spacing:0.15000001px;fill:#2b2a29;fill-opacity:1"
           id="path4588" />
        <path
           d="m 1244.3403,-563.76025 q 0,1.44653 0.3296,1.88598 0.3296,0.43946 1.2451,0.43946 0.238,0 0.3845,0 0.1465,-0.0183 0.2747,-0.0366 l 0.018,1.86768 -7.3975,0.97046 0,-2.01416 q -1.2085,1.00708 -2.4536,1.51977 -1.2268,0.49439 -2.4902,0.49439 -2.5818,0 -3.8269,-1.48316 -1.2451,-1.50146 -1.2451,-4.61425 l 0,-7.36084 q 0,-1.40991 -0.4029,-1.84937 -0.4028,-0.45776 -1.6845,-0.6958 l 0,-1.86767 7.0861,-0.3479 0,11.66381 q 0,1.81275 0.586,2.49024 0.6042,0.65918 2.1057,0.65918 1.0986,0 1.7029,-0.38452 0.6225,-0.38453 0.6225,-1.08033 l 0,-8.69751 q 0,-1.2268 -0.3845,-1.72119 -0.3662,-0.51269 -1.3367,-0.73242 l 0,-1.84936 6.8665,-0.3479 0,13.09204 z"
           style="font-style:normal;font-variant:normal;font-weight:bold;font-stretch:normal;font-size:37.5px;font-family:'Aldine721 BT';-inkscape-font-specification:'Aldine721 BT Bold';letter-spacing:0.15000001px;fill:#2b2a29;fill-opacity:1"
           id="path4590" />
        <path
           d="m 1265.053,-562.40527 q -1.9592,1.94091 -3.8818,2.87475 -1.9226,0.93384 -3.9185,0.93384 -3.4973,0 -5.8044,-2.4353 -2.2888,-2.45362 -2.2888,-6.26221 0,-4.24805 2.4719,-6.88477 2.4719,-2.63671 6.5003,-2.63671 2.9113,0 4.7241,1.26342 1.831,1.24512 1.831,3.20435 0,1.0437 -0.7141,1.79443 -0.7141,0.75074 -1.7212,0.75074 -0.7507,0 -1.355,-0.43946 -0.5859,-0.43945 -0.8606,-1.20849 -0.073,-0.20142 -0.2014,-0.54932 -0.9338,-2.6001 -2.7282,-2.6001 -1.4466,0 -2.3255,1.26343 -0.8606,1.24512 -0.8606,3.35083 0,3.33252 1.593,5.43823 1.6114,2.10572 4.1199,2.10572 1.062,0 2.1057,-0.36622 1.0437,-0.36621 2.0874,-1.09863 l 1.2268,1.50147 z"
           style="font-style:normal;font-variant:normal;font-weight:bold;font-stretch:normal;font-size:37.5px;font-family:'Aldine721 BT';-inkscape-font-specification:'Aldine721 BT Bold';letter-spacing:0.15000001px;fill:#2b2a29;fill-opacity:1"
           id="path4592" />
        <path
           d="m 1277.6542,-560.5376 q -1.3916,0.98877 -2.6367,1.44654 -1.2268,0.45776 -2.4536,0.45776 -2.2522,0 -3.6438,-1.2085 -1.3916,-1.20849 -1.3916,-3.1311 0,-2.14233 2.3254,-3.68042 2.3255,-1.53809 7.3975,-2.72827 l 0,-2.92969 q 0,-1.44653 -0.5676,-2.06909 -0.5493,-0.64087 -1.8311,-0.64087 -0.9704,0 -1.593,0.38452 -0.6226,0.36621 -0.6226,0.93384 0,0.42114 0.293,1.00708 0.3113,0.58594 0.3113,0.75073 0,0.36621 -1.2268,1.02539 -1.2085,0.64087 -2.1973,0.64087 -0.5127,0 -0.8972,-0.71411 -0.3662,-0.73242 -0.3662,-1.77612 0,-1.81275 1.8127,-2.948 1.8311,-1.13525 4.8157,-1.13525 4.1931,0 5.6397,1.20849 1.4465,1.2085 1.4465,4.55933 l 0,7.4707 q 0,1.00708 0.1648,1.35498 0.1831,0.32959 0.6225,0.32959 0.2564,0 0.5494,-0.0915 0.2929,-0.10987 0.6591,-0.31128 0,1.72119 -1.0253,2.7832 -1.0254,1.0437 -2.7283,1.0437 -0.9705,0 -1.6846,-0.49438 -0.7141,-0.5127 -1.1719,-1.53809 z m -0.4028,-2.28882 0,-4.54101 q -2.3621,0.6958 -3.6255,1.64795 -1.2451,0.93384 -1.2451,2.03247 0,0.84228 0.6042,1.3916 0.6226,0.54932 1.5564,0.54932 0.6226,0 1.2818,-0.25635 0.6592,-0.25635 1.4282,-0.82398 z"
           style="font-style:normal;font-variant:normal;font-weight:bold;font-stretch:normal;font-size:37.5px;font-family:'Aldine721 BT';-inkscape-font-specification:'Aldine721 BT Bold';letter-spacing:0.15000001px;fill:#2b2a29;fill-opacity:1"
           id="path4594" />
        <path
           d="m 1302.9263,-562.40527 q -1.9592,1.94091 -3.8818,2.87475 -1.9226,0.93384 -3.9185,0.93384 -3.4973,0 -5.8044,-2.4353 -2.2889,-2.45362 -2.2889,-6.26221 0,-4.24805 2.472,-6.88477 2.4719,-2.63671 6.5002,-2.63671 2.9114,0 4.7241,1.26342 1.8311,1.24512 1.8311,3.20435 0,1.0437 -0.7141,1.79443 -0.7141,0.75074 -1.7212,0.75074 -0.7507,0 -1.355,-0.43946 -0.5859,-0.43945 -0.8606,-1.20849 -0.073,-0.20142 -0.2014,-0.54932 -0.9338,-2.6001 -2.7283,-2.6001 -1.4465,0 -2.3254,1.26343 -0.8606,1.24512 -0.8606,3.35083 0,3.33252 1.593,5.43823 1.6113,2.10572 4.1199,2.10572 1.062,0 2.1057,-0.36622 1.0437,-0.36621 2.0874,-1.09863 l 1.2268,1.50147 z"
           style="font-style:normal;font-variant:normal;font-weight:bold;font-stretch:normal;font-size:37.5px;font-family:'Aldine721 BT';-inkscape-font-specification:'Aldine721 BT Bold';letter-spacing:0.15000001px;fill:#2b2a29;fill-opacity:1"
           id="path4596" />
        <path
           d="m 1307.4342,-583.26099 q 0,-1.13525 0.824,-1.94091 0.824,-0.80567 1.9958,-0.80567 1.1719,0 1.9593,0.78736 0.8056,0.78735 0.8056,1.95922 0,1.19019 -0.8056,2.03247 -0.8057,0.82398 -1.9593,0.82398 -1.1718,0 -1.9958,-0.84229 -0.824,-0.84228 -0.824,-2.01416 z m 5.365,20.21485 q 0,1.13525 0.4761,1.62964 0.4944,0.47607 1.7395,0.58593 l 0,1.86768 -9.4849,0 0,-1.86768 q 1.2451,-0.10986 1.7212,-0.58593 0.4761,-0.49439 0.4761,-1.62964 l 0,-9.44824 -2.1241,-1.13526 0,-1.19018 5.9876,-2.03247 1.2085,0 0,13.80615 z"
           style="font-style:normal;font-variant:normal;font-weight:bold;font-stretch:normal;font-size:37.5px;font-family:'Aldine721 BT';-inkscape-font-specification:'Aldine721 BT Bold';letter-spacing:0.15000001px;fill:#2b2a29;fill-opacity:1"
           id="path4598" />
        <path
           d="m 1322.5988,-568.7041 q 0,3.8269 0.9156,5.93262 0.9338,2.0874 2.6184,2.0874 1.831,0 2.655,-1.48316 0.824,-1.48315 0.824,-4.77905 0,-3.73535 -0.9888,-5.80444 -0.9888,-2.06909 -2.7466,-2.06909 -1.6662,0 -2.4719,1.50146 -0.8057,1.48315 -0.8057,4.61426 z m 3.3875,10.10742 q -3.9917,0 -6.4453,-2.6001 -2.4536,-2.61841 -2.4536,-6.84814 0,-3.77197 2.5818,-6.28052 2.6001,-2.52685 6.5002,-2.52685 3.9001,0 6.427,2.60009 2.5269,2.58179 2.5269,6.5918 0,3.95508 -2.5635,6.51855 -2.5635,2.54517 -6.5735,2.54517 z m -3.4241,-20.26978 4.9988,-5.18188 q 0.7324,-0.76904 1.3184,-1.11694 0.5859,-0.3479 1.1535,-0.3479 0.7325,0 1.1902,0.45776 0.4578,0.45776 0.4578,1.19019 0,0.58593 -0.3296,0.98877 -0.3296,0.40283 -1.3916,0.97045 l -5.7312,3.03955 -1.6663,0 z"
           style="font-style:normal;font-variant:normal;font-weight:bold;font-stretch:normal;font-size:37.5px;font-family:'Aldine721 BT';-inkscape-font-specification:'Aldine721 BT Bold';letter-spacing:0.15000001px;fill:#2b2a29;fill-opacity:1"
           id="path4600" />
        <path
           d="m 1337.4522,-558.96289 0,-1.86768 q 1.2634,-0.10986 1.7395,-0.58593 0.4761,-0.49439 0.4761,-1.62964 l 0,-9.44824 -2.2156,-1.13526 0,-1.19018 6.0059,-2.03247 1.2085,0 0,2.10571 q 1.6113,-1.06201 3.0212,-1.57471 1.4282,-0.531 2.7466,-0.531 2.6367,0 3.8269,1.40991 1.1902,1.3916 1.1902,4.5227 l 0,7.87354 q 0,1.13525 0.4394,1.62964 0.4395,0.47607 1.5564,0.58593 l 0,1.86768 -8.9172,0 0,-1.86768 q 1.0254,-0.10986 1.4282,-0.58593 0.4028,-0.49439 0.4028,-1.62964 l 0,-7.9834 q 0,-1.46484 -0.5127,-2.03247 -0.5126,-0.56763 -1.8127,-0.56763 -0.769,0 -1.593,0.20142 -0.8057,0.1831 -1.6297,0.54931 l 0,9.83277 q 0,1.15356 0.3846,1.62964 0.4028,0.47607 1.4099,0.58593 l 0,1.86768 -9.1553,0 z"
           style="font-style:normal;font-variant:normal;font-weight:bold;font-stretch:normal;font-size:37.5px;font-family:'Aldine721 BT';-inkscape-font-specification:'Aldine721 BT Bold';letter-spacing:0.15000001px;fill:#2b2a29;fill-opacity:1"
           id="path4602" />
        <path
           d="m 1381.2581,-560.79395 q -1.2451,1.09864 -2.5635,1.64795 -1.3,0.54932 -2.655,0.54932 -2.9846,0 -4.9072,-2.28882 -1.9227,-2.30713 -1.9227,-5.95093 0,-4.32128 2.417,-7.15942 2.4353,-2.85644 6.0242,-2.85644 0.9888,0 1.8311,0.32958 0.8606,0.32959 1.6662,1.0254 l 0,-6.18897 -2.1789,-1.17187 0,-1.15357 6.0058,-2.03247 1.1902,0 0,22.68677 q 0,1.35498 0.4028,1.72119 0.4212,0.3479 1.6846,0.38452 l 0.018,1.61133 -7.0129,1.00708 0,-2.16065 z m -0.1099,-9.57641 q 0,-2.32544 -0.6775,-3.24097 -0.6775,-0.91553 -2.3254,-0.91553 -1.9226,0 -2.9114,1.5564 -0.9888,1.53809 -0.9888,4.55933 0,2.80151 1.2269,4.48608 1.2268,1.66626 3.2775,1.66626 1.2268,0 1.8128,-0.58594 0.5859,-0.58593 0.5859,-1.81274 l 0,-5.71289 z"
           style="font-style:normal;font-variant:normal;font-weight:bold;font-stretch:normal;font-size:37.5px;font-family:'Aldine721 BT';-inkscape-font-specification:'Aldine721 BT Bold';letter-spacing:0.15000001px;fill:#2b2a29;fill-opacity:1"
           id="path4604" />
        <path
           d="m 1406.4752,-568.94214 -10.9131,0 0,0.10986 q 0,2.65503 1.3916,4.3396 1.3916,1.66626 3.534,1.66626 0.9338,0 2.0874,-0.36621 1.1718,-0.38452 2.8564,-1.24511 l 1.2818,1.3916 q -2.1973,2.41699 -3.9917,3.42407 -1.7762,0.98877 -3.8636,0.98877 -3.5705,0 -5.8777,-2.58179 -2.2888,-2.58178 -2.2888,-6.66504 0,-3.93676 2.3621,-6.427 2.362,-2.50854 6.1157,-2.50854 3.2227,0 5.2002,2.14233 1.9959,2.12402 2.1057,5.7312 z m -10.8948,-1.9043 5.951,0 q 0,-0.0915 0.018,-0.27465 0.018,-0.20142 0.018,-0.29297 0,-1.5564 -0.8423,-2.41699 -0.824,-0.87891 -2.3071,-0.87891 -1.2268,0 -2.0325,1.06201 -0.7873,1.06201 -0.8057,2.80151 z"
           style="font-style:normal;font-variant:normal;font-weight:bold;font-stretch:normal;font-size:37.5px;font-family:'Aldine721 BT';-inkscape-font-specification:'Aldine721 BT Bold';letter-spacing:0.15000001px;fill:#2b2a29;fill-opacity:1"
           id="path4606" />
        <path
           d="m 1425.8731,-563.04614 q 0,1.15356 0.4944,1.62964 0.4944,0.45776 1.7761,0.54931 l 0,1.9043 -9.668,0 0,-1.9043 q 1.2818,-0.0915 1.7762,-0.56762 0.5127,-0.47608 0.5127,-1.61133 l 0,-18.64014 -2.1057,-1.17187 0,-1.15357 6.0058,-2.03247 1.2085,0 0,22.99805 z"
           style="font-style:normal;font-variant:normal;font-weight:bold;font-stretch:normal;font-size:37.5px;font-family:'Aldine721 BT';-inkscape-font-specification:'Aldine721 BT Bold';letter-spacing:0.15000001px;fill:#2b2a29;fill-opacity:1"
           id="path4608" />
        <path
           d="m 1440.4335,-560.5376 q -1.3916,0.98877 -2.6367,1.44654 -1.2268,0.45776 -2.4536,0.45776 -2.2522,0 -3.6438,-1.2085 -1.3916,-1.20849 -1.3916,-3.1311 0,-2.14233 2.3254,-3.68042 2.3255,-1.53809 7.3975,-2.72827 l 0,-2.92969 q 0,-1.44653 -0.5676,-2.06909 -0.5493,-0.64087 -1.8311,-0.64087 -0.9704,0 -1.593,0.38452 -0.6226,0.36621 -0.6226,0.93384 0,0.42114 0.293,1.00708 0.3113,0.58594 0.3113,0.75073 0,0.36621 -1.2268,1.02539 -1.2085,0.64087 -2.1973,0.64087 -0.5127,0 -0.8972,-0.71411 -0.3662,-0.73242 -0.3662,-1.77612 0,-1.81275 1.8127,-2.948 1.8311,-1.13525 4.8157,-1.13525 4.1931,0 5.6397,1.20849 1.4465,1.2085 1.4465,4.55933 l 0,7.4707 q 0,1.00708 0.1648,1.35498 0.1831,0.32959 0.6225,0.32959 0.2564,0 0.5494,-0.0915 0.2929,-0.10987 0.6591,-0.31128 0,1.72119 -1.0254,2.7832 -1.0253,1.0437 -2.7282,1.0437 -0.9705,0 -1.6846,-0.49438 -0.7141,-0.5127 -1.1719,-1.53809 z m -0.4028,-2.28882 0,-4.54101 q -2.3621,0.6958 -3.6255,1.64795 -1.2451,0.93384 -1.2451,2.03247 0,0.84228 0.6042,1.3916 0.6226,0.54932 1.5564,0.54932 0.6226,0 1.2818,-0.25635 0.6592,-0.25635 1.4282,-0.82398 z"
           style="font-style:normal;font-variant:normal;font-weight:bold;font-stretch:normal;font-size:37.5px;font-family:'Aldine721 BT';-inkscape-font-specification:'Aldine721 BT Bold';letter-spacing:0.15000001px;fill:#2b2a29;fill-opacity:1"
           id="path4610" />
        <path
           d="m 1458.8427,-558.96289 0,-2.17896 q 1.9226,-0.1831 2.6184,-1.02539 0.6958,-0.84228 0.6958,-3.66211 l 0,-15.41748 q -0.9156,-1.11694 -1.6663,-1.59301 -0.7507,-0.49439 -1.5564,-0.49439 l -0.091,0 0,-2.17895 7.3608,0 q 0.531,0 0.7507,0.12817 0.2198,0.12817 0.6043,0.58594 l 13.678,16.16821 0,-10.94971 q 0,-1.72119 -0.7874,-2.60009 -0.769,-0.87891 -2.5452,-1.15357 l 0,-2.17895 9.0638,0 0,2.17895 q -1.8128,0.29297 -2.5269,1.09863 -0.6958,0.80567 -0.6958,2.65503 l 0,16.75415 q 0,1.00708 0.037,2.08741 0.055,1.08032 0.1465,2.30713 l -2.6916,0 -16.6443,-19.53736 0,12.13989 q 0,2.63672 0.8056,3.55225 0.824,0.89722 3.1678,1.13525 l 0,2.17896 -9.7229,0 z"
           style="font-style:normal;font-variant:normal;font-weight:bold;font-stretch:normal;font-size:37.5px;font-family:'Aldine721 BT';-inkscape-font-specification:'Aldine721 BT Bold';letter-spacing:0.15000001px;fill:#2b2a29;fill-opacity:1"
           id="path4612" />
        <path
           d="m 1499.3308,-560.5376 q -1.3916,0.98877 -2.6367,1.44654 -1.2268,0.45776 -2.4536,0.45776 -2.2522,0 -3.6438,-1.2085 -1.3916,-1.20849 -1.3916,-3.1311 0,-2.14233 2.3254,-3.68042 2.3255,-1.53809 7.3975,-2.72827 l 0,-2.92969 q 0,-1.44653 -0.5676,-2.06909 -0.5494,-0.64087 -1.8311,-0.64087 -0.9705,0 -1.593,0.38452 -0.6226,0.36621 -0.6226,0.93384 0,0.42114 0.293,1.00708 0.3113,0.58594 0.3113,0.75073 0,0.36621 -1.2268,1.02539 -1.2085,0.64087 -2.1973,0.64087 -0.5127,0 -0.8972,-0.71411 -0.3662,-0.73242 -0.3662,-1.77612 0,-1.81275 1.8127,-2.948 1.8311,-1.13525 4.8157,-1.13525 4.1931,0 5.6396,1.20849 1.4466,1.2085 1.4466,4.55933 l 0,7.4707 q 0,1.00708 0.1648,1.35498 0.1831,0.32959 0.6225,0.32959 0.2564,0 0.5493,-0.0915 0.293,-0.10987 0.6592,-0.31128 0,1.72119 -1.0254,2.7832 -1.0254,1.0437 -2.7282,1.0437 -0.9705,0 -1.6846,-0.49438 -0.7141,-0.5127 -1.1719,-1.53809 z m -0.4028,-2.28882 0,-4.54101 q -2.3621,0.6958 -3.6255,1.64795 -1.2451,0.93384 -1.2451,2.03247 0,0.84228 0.6042,1.3916 0.6226,0.54932 1.5564,0.54932 0.6226,0 1.2818,-0.25635 0.6591,-0.25635 1.4282,-0.82398 z"
           style="font-style:normal;font-variant:normal;font-weight:bold;font-stretch:normal;font-size:37.5px;font-family:'Aldine721 BT';-inkscape-font-specification:'Aldine721 BT Bold';letter-spacing:0.15000001px;fill:#2b2a29;fill-opacity:1"
           id="path4614" />
        <path
           d="m 1524.6028,-562.40527 q -1.9592,1.94091 -3.8818,2.87475 -1.9226,0.93384 -3.9184,0.93384 -3.4974,0 -5.8045,-2.4353 -2.2888,-2.45362 -2.2888,-6.26221 0,-4.24805 2.4719,-6.88477 2.4719,-2.63671 6.5003,-2.63671 2.9113,0 4.7241,1.26342 1.831,1.24512 1.831,3.20435 0,1.0437 -0.7141,1.79443 -0.7141,0.75074 -1.7212,0.75074 -0.7507,0 -1.3549,-0.43946 -0.586,-0.43945 -0.8606,-1.20849 -0.073,-0.20142 -0.2015,-0.54932 -0.9338,-2.6001 -2.7282,-2.6001 -1.4466,0 -2.3255,1.26343 -0.8606,1.24512 -0.8606,3.35083 0,3.33252 1.593,5.43823 1.6114,2.10572 4.1199,2.10572 1.062,0 2.1057,-0.36622 1.0437,-0.36621 2.0874,-1.09863 l 1.2268,1.50147 z"
           style="font-style:normal;font-variant:normal;font-weight:bold;font-stretch:normal;font-size:37.5px;font-family:'Aldine721 BT';-inkscape-font-specification:'Aldine721 BT Bold';letter-spacing:0.15000001px;fill:#2b2a29;fill-opacity:1"
           id="path4616" />
        <path
           d="m 1529.1108,-583.26099 q 0,-1.13525 0.824,-1.94091 0.8239,-0.80567 1.9958,-0.80567 1.1719,0 1.9592,0.78736 0.8057,0.78735 0.8057,1.95922 0,1.19019 -0.8057,2.03247 -0.8056,0.82398 -1.9592,0.82398 -1.1719,0 -1.9958,-0.84229 -0.824,-0.84228 -0.824,-2.01416 z m 5.365,20.21485 q 0,1.13525 0.476,1.62964 0.4944,0.47607 1.7395,0.58593 l 0,1.86768 -9.4848,0 0,-1.86768 q 1.2451,-0.10986 1.7212,-0.58593 0.476,-0.49439 0.476,-1.62964 l 0,-9.44824 -2.124,-1.13526 0,-1.19018 5.9876,-2.03247 1.2085,0 0,13.80615 z"
           style="font-style:normal;font-variant:normal;font-weight:bold;font-stretch:normal;font-size:37.5px;font-family:'Aldine721 BT';-inkscape-font-specification:'Aldine721 BT Bold';letter-spacing:0.15000001px;fill:#2b2a29;fill-opacity:1"
           id="path4618" />
        <path
           d="m 1544.2754,-568.7041 q 0,3.8269 0.9155,5.93262 0.9339,2.0874 2.6184,2.0874 1.8311,0 2.6551,-1.48316 0.8239,-1.48315 0.8239,-4.77905 0,-3.73535 -0.9887,-5.80444 -0.9888,-2.06909 -2.7466,-2.06909 -1.6663,0 -2.4719,1.50146 -0.8057,1.48315 -0.8057,4.61426 z m 3.3874,10.10742 q -3.9917,0 -6.4453,-2.6001 -2.4536,-2.61841 -2.4536,-6.84814 0,-3.77197 2.5818,-6.28052 2.6001,-2.52685 6.5002,-2.52685 3.9002,0 6.427,2.60009 2.5269,2.58179 2.5269,6.5918 0,3.95508 -2.5635,6.51855 -2.5634,2.54517 -6.5735,2.54517 z m -3.424,-20.26978 4.9987,-5.18188 q 0.7325,-0.76904 1.3184,-1.11694 0.5859,-0.3479 1.1536,-0.3479 0.7324,0 1.1902,0.45776 0.4577,0.45776 0.4577,1.19019 0,0.58593 -0.3296,0.98877 -0.3296,0.40283 -1.3916,0.97045 l -5.7312,3.03955 -1.6662,0 z"
           style="font-style:normal;font-variant:normal;font-weight:bold;font-stretch:normal;font-size:37.5px;font-family:'Aldine721 BT';-inkscape-font-specification:'Aldine721 BT Bold';letter-spacing:0.15000001px;fill:#2b2a29;fill-opacity:1"
           id="path4620" />
        <path
           d="m 1559.1288,-558.96289 0,-1.86768 q 1.2634,-0.10986 1.7395,-0.58593 0.4761,-0.49439 0.4761,-1.62964 l 0,-9.44824 -2.2156,-1.13526 0,-1.19018 6.0058,-2.03247 1.2085,0 0,2.10571 q 1.6114,-1.06201 3.0213,-1.57471 1.4282,-0.531 2.7466,-0.531 2.6367,0 3.8269,1.40991 1.1902,1.3916 1.1902,4.5227 l 0,7.87354 q 0,1.13525 0.4394,1.62964 0.4395,0.47607 1.5564,0.58593 l 0,1.86768 -8.9172,0 0,-1.86768 q 1.0254,-0.10986 1.4282,-0.58593 0.4028,-0.49439 0.4028,-1.62964 l 0,-7.9834 q 0,-1.46484 -0.5127,-2.03247 -0.5127,-0.56763 -1.8127,-0.56763 -0.7691,0 -1.593,0.20142 -0.8057,0.1831 -1.6297,0.54931 l 0,9.83277 q 0,1.15356 0.3845,1.62964 0.4029,0.47607 1.41,0.58593 l 0,1.86768 -9.1553,0 z"
           style="font-style:normal;font-variant:normal;font-weight:bold;font-stretch:normal;font-size:37.5px;font-family:'Aldine721 BT';-inkscape-font-specification:'Aldine721 BT Bold';letter-spacing:0.15000001px;fill:#2b2a29;fill-opacity:1"
           id="path4622" />
      </g>
      <path
         style="opacity:1;fill:#2b2a29;fill-opacity:1;stroke:none;stroke-width:8;stroke-miterlimit:4;stroke-dasharray:none;stroke-dashoffset:0;stroke-opacity:1"
         d="m 1265.6927,-489.24457 c 54.9207,0 99.1349,0.56301 99.1349,1.26236 0,0.69934 -44.2142,1.26235 -99.1349,1.26235 -54.9208,0 -99.135,-0.56301 -99.135,-1.26235 0,-0.69935 44.2142,-1.26236 99.135,-1.26236 z"
         id="rect4490" />
      <g
         transform="translate(-983.38841,-2.2265503)"
         id="g4492">
        <g
           style="font-style:normal;font-weight:normal;font-size:26.64980125px;line-height:125%;font-family:sans-serif;letter-spacing:0px;word-spacing:0px;fill:#2b2a29;fill-opacity:1;stroke:none;stroke-width:1px;stroke-linecap:butt;stroke-linejoin:miter;stroke-opacity:1"
           id="text4494">
          <path
             d="m 1971.0537,-516.84351 0,-1.20849 q 1.4636,-0.0269 2.0813,-0.64453 0.6311,-0.61768 0.6311,-2.02759 l 0,-12.07153 q 0,-1.27564 -0.6177,-1.81275 -0.6176,-0.55054 -2.0947,-0.57739 l 0,-1.12793 8.634,0 0,1.12793 q -1.3964,0 -2.0947,0.61767 -0.6848,0.60425 -0.6848,1.82618 l 0,11.5747 q 0,1.92017 0.7654,2.5647 0.7654,0.6311 3.1152,0.6311 2.4976,0 4.1089,-0.96679 1.6248,-0.98023 2.511,-3.02124 l 1.2353,0.33569 -1.1816,4.78027 -16.4087,0 z"
             style="font-style:normal;font-variant:normal;font-weight:normal;font-stretch:normal;font-size:27.5px;font-family:'Aldine721 BT';-inkscape-font-specification:'Aldine721 BT';letter-spacing:0.5px;word-spacing:0px;fill:#2b2a29;fill-opacity:1"
             id="path4488" />
          <path
             d="m 1993.1858,-525.94751 5.4651,0 q -0.081,-1.30249 -0.8191,-2.06787 -0.7251,-0.76538 -1.8665,-0.76538 -1.0205,0 -1.7456,0.73852 -0.7116,0.7251 -1.0339,2.09473 z m 8.352,6.27075 q -1.0876,1.61133 -2.2961,2.36328 -1.2085,0.73853 -2.7258,0.73853 -2.5782,0 -4.1626,-1.78589 -1.5845,-1.78589 -1.5845,-4.69971 0,-2.96753 1.6382,-4.9414 1.6516,-1.98731 4.1089,-1.98731 2.0544,0 3.5046,1.47705 1.4502,1.46363 1.6382,3.7732 l -7.1838,0 q -0.9131,0 -1.1011,0.10742 -0.188,0.10742 -0.188,0.49682 0,2.12159 1.2219,3.6792 1.2219,1.54419 2.9004,1.54419 0.8862,0 1.759,-0.36255 0.8728,-0.37597 1.7591,-1.14135 l 0.7116,0.73852 z"
             style="font-style:normal;font-variant:normal;font-weight:normal;font-stretch:normal;font-size:27.5px;font-family:'Aldine721 BT';-inkscape-font-specification:'Aldine721 BT';letter-spacing:0.5px;word-spacing:0px;fill:#2b2a29;fill-opacity:1"
             id="path4490" />
          <path
             d="m 2003.2061,-528.61963 0,-1.12793 5.6127,0 0,1.12793 -0.1611,0 q -0.5505,0 -0.8728,0.22827 -0.3088,0.22827 -0.3088,0.60425 0,0.33569 0.1343,0.83252 0.1477,0.49683 0.4162,1.08765 l 2.5244,5.61279 2.041,-5.63965 q 0.2015,-0.59082 0.2686,-0.8728 0.081,-0.29541 0.081,-0.46997 0,-0.55054 -0.4163,-0.93994 -0.4028,-0.38941 -1.0339,-0.44312 l 0,-1.12793 4.7802,0 0,1.12793 q -0.8056,0.17456 -1.3293,0.71167 -0.5237,0.52368 -0.9802,1.6919 l -3.7732,9.76196 q -1.1414,2.96753 -2.0947,4.02832 -0.94,1.06079 -2.2962,1.06079 -1.0071,0 -1.6247,-0.45654 -0.6043,-0.44312 -0.6043,-1.16822 0,-0.53711 0.3491,-0.93994 0.3491,-0.3894 0.8325,-0.3894 0.4029,0 0.9937,0.51025 0.5908,0.51026 0.9802,0.51026 0.6311,0 1.1817,-0.75196 0.5639,-0.75195 0.9936,-2.16186 l 0.282,-0.81909 -4.0955,-9.37256 q -0.054,-0.12085 -0.1477,-0.3357 -0.7116,-1.67846 -1.7321,-1.87988 z"
             style="font-style:normal;font-variant:normal;font-weight:normal;font-stretch:normal;font-size:27.5px;font-family:'Aldine721 BT';-inkscape-font-specification:'Aldine721 BT';letter-spacing:0.5px;word-spacing:0px;fill:#2b2a29;fill-opacity:1"
             id="path4492" />
          <path
             d="m 2027.0869,-516.84351 0,-1.20849 0.3894,0 q 1.2622,0 1.7456,-0.46997 0.4834,-0.4834 0.4834,-1.73218 l 0,-11.30615 q 0,-1.4502 -0.5102,-1.86646 -0.4969,-0.41626 -2.1082,-0.44311 l 0,-0.92652 5.1428,-1.32934 0,15.81787 q 0,1.22192 0.5103,1.7456 0.5102,0.51026 1.7187,0.51026 l 0.3357,0 0,1.20849 -7.7075,0 z"
             style="font-style:normal;font-variant:normal;font-weight:normal;font-stretch:normal;font-size:27.5px;font-family:'Aldine721 BT';-inkscape-font-specification:'Aldine721 BT';letter-spacing:0.5px;word-spacing:0px;fill:#2b2a29;fill-opacity:1"
             id="path4494" />
          <path
             d="m 2039.363,-516.84351 0,-1.28906 q 4.2298,-4.67285 6.1768,-7.70752 1.9604,-3.04809 1.9604,-4.9414 0,-1.42334 -0.9399,-2.39014 -0.9399,-0.9668 -2.3096,-0.9668 -0.9668,0 -1.8799,0.4834 -0.913,0.4834 -1.7456,1.43677 l -0.6848,-0.71167 q 1.2488,-1.65161 2.5647,-2.41699 1.3159,-0.77881 2.8736,-0.77881 2.1215,0 3.4777,1.24878 1.3697,1.23535 1.3697,3.15551 0,1.87989 -1.7322,4.56543 -1.7322,2.68555 -6.4319,7.8418 l 5.2234,0 q 1.2219,0 1.6919,-0.30884 0.47,-0.32226 0.9936,-1.18164 l 0.5506,0.16114 q 0.1745,0.0537 0.282,0.13427 0.1074,0.0671 0.1074,0.12085 -0.081,0.18799 -0.2417,0.55054 l -1.2756,2.99438 -10.0306,0 z"
             style="font-style:normal;font-variant:normal;font-weight:normal;font-stretch:normal;font-size:27.5px;font-family:'Aldine721 BT';-inkscape-font-specification:'Aldine721 BT';letter-spacing:0.5px;word-spacing:0px;fill:#2b2a29;fill-opacity:1"
             id="path4496" />
          <path
             d="m 2054.1367,-518.62939 q 0,-0.73853 0.5103,-1.24878 0.5102,-0.51026 1.2488,-0.51026 0.7385,0 1.2487,0.51026 0.5103,0.51025 0.5103,1.24878 0,0.73852 -0.5237,1.2622 -0.5103,0.52368 -1.2353,0.52368 -0.7386,0 -1.2488,-0.52368 -0.5103,-0.52368 -0.5103,-1.2622 z"
             style="font-style:normal;font-variant:normal;font-weight:normal;font-stretch:normal;font-size:27.5px;font-family:'Aldine721 BT';-inkscape-font-specification:'Aldine721 BT';letter-spacing:0.5px;word-spacing:0px;fill:#2b2a29;fill-opacity:1"
             id="path4498" />
          <path
             d="m 2061.5654,-517.60889 q 3.1421,-1.19507 5.022,-3.07495 1.8933,-1.87988 2.6453,-4.57886 -0.9265,0.4834 -1.7188,0.71167 -0.7922,0.22828 -1.4905,0.22828 -2.3632,0 -3.8806,-1.62476 -1.5173,-1.63818 -1.5173,-4.20288 0,-2.5647 1.6516,-4.24316 1.6516,-1.67847 4.2163,-1.67847 2.6318,0 4.4043,2.17529 1.7725,2.17529 1.7725,5.45166 0,3.85376 -2.5513,7.00928 -2.5378,3.14209 -6.9556,4.75342 l -1.5979,-0.92652 z m 7.9761,-9.23828 q 0.1209,-0.64453 0.1746,-1.22192 0.067,-0.59082 0.067,-1.15479 0,-2.59155 -0.8728,-4.08203 -0.8594,-1.49048 -2.3633,-1.49048 -1.3293,0 -2.1618,1.12793 -0.8191,1.12793 -0.8191,2.99439 0,2.10815 0.8459,3.33008 0.8594,1.20849 2.323,1.20849 0.5774,0 1.2622,-0.17456 0.6848,-0.17456 1.5442,-0.53711 z"
             style="font-style:normal;font-variant:normal;font-weight:normal;font-stretch:normal;font-size:27.5px;font-family:'Aldine721 BT';-inkscape-font-specification:'Aldine721 BT';letter-spacing:0.5px;word-spacing:0px;fill:#2b2a29;fill-opacity:1"
             id="path4500" />
          <path
             d="m 2077.2522,-525.73267 0.054,-1.39648 q 2.5647,-0.49683 4.0015,-1.61133 1.4367,-1.1145 1.4367,-2.59155 0,-1.42334 -0.7788,-2.26929 -0.7788,-0.84595 -2.0813,-0.84595 -0.6445,0 -1.3159,0.34913 -0.6579,0.33569 -1.8396,1.32934 l -0.8056,-0.37598 q 1.0205,-1.58447 2.2558,-2.33642 1.2354,-0.75195 2.8064,-0.75195 1.8665,0 3.1287,1.16821 1.2756,1.15478 1.2756,2.81982 0,1.22193 -0.7519,2.323 -0.752,1.08765 -2.2156,2.00073 1.9336,0.83252 2.8869,2.01416 0.9534,1.18164 0.9534,2.73926 0,2.92725 -2.3498,4.73999 -2.3499,1.79932 -6.2842,1.79932 -0.9803,0 -1.5308,-0.32227 -0.5505,-0.33569 -0.5505,-0.91308 0,-0.49683 0.3894,-0.8191 0.4028,-0.33569 1.0339,-0.33569 0.4297,0 1.6113,0.25513 1.1951,0.2417 1.9336,0.2417 1.5174,0 2.3902,-0.91309 0.8862,-0.91308 0.8862,-2.4707 0,-1.90674 -1.3428,-2.88696 -1.3293,-0.99366 -3.9074,-0.99366 -0.3626,0 -1.1548,0.0537 -0.094,0 -0.1343,0 z"
             style="font-style:normal;font-variant:normal;font-weight:normal;font-stretch:normal;font-size:27.5px;font-family:'Aldine721 BT';-inkscape-font-specification:'Aldine721 BT';letter-spacing:0.5px;word-spacing:0px;fill:#2b2a29;fill-opacity:1"
             id="path4502" />
          <path
             d="m 2089.958,-529.07617 2.1753,-6.84815 4.8608,0 q 0.2015,0 0.4432,-0.13427 0.2551,-0.14771 0.4431,-0.36255 l 0.5237,-0.60425 1.007,0.52368 -1.1145,2.36328 q -0.1477,0.30884 -0.3894,0.42969 -0.2417,0.12085 -0.7654,0.12085 l -4.4311,0 -0.752,2.30957 q 3.9612,0.9668 5.9217,2.86011 1.9738,1.87988 1.9738,4.6997 0,1.42334 -0.5908,2.71241 -0.5774,1.27563 -1.7456,2.40356 -1.0876,1.00708 -2.4975,1.55762 -1.4099,0.53711 -2.9407,0.53711 -1.1145,0 -1.8128,-0.25513 -0.6982,-0.25513 -0.6982,-0.6311 0,-0.29541 0.3626,-0.79224 0.3625,-0.51025 0.9936,-1.07422 0.658,0.32227 1.3428,0.4834 0.6982,0.14771 1.4636,0.14771 1.7859,0 2.9944,-1.19507 1.2085,-1.19507 1.2085,-2.92725 0,-2.0813 -2.0813,-3.73291 -2.0679,-1.65161 -5.8948,-2.59155 z"
             style="font-style:normal;font-variant:normal;font-weight:normal;font-stretch:normal;font-size:27.5px;font-family:'Aldine721 BT';-inkscape-font-specification:'Aldine721 BT';letter-spacing:0.5px;word-spacing:0px;fill:#2b2a29;fill-opacity:1"
             id="path4504" />
        </g>
        <g
           style="font-style:normal;font-weight:normal;font-size:26.64980125px;line-height:125%;font-family:sans-serif;letter-spacing:0px;word-spacing:0px;fill:#2b2a29;fill-opacity:1;stroke:none;stroke-width:1px;stroke-linecap:butt;stroke-linejoin:miter;stroke-opacity:1"
           id="text4498">
          <path
             d="m 2135.5505,-516.6145 0,-1.2085 q 1.5442,-0.0403 2.1082,-0.65796 0.5774,-0.61767 0.5774,-2.39013 l 0,-13.97828 -1.7859,0 q -2.0544,0 -2.9407,0.67139 -0.8862,0.65796 -1.5979,2.4707 l -1.2085,0 0.5506,-4.37744 17.1606,0 0.7117,4.37744 -1.2354,-0.0269 q -0.9802,-1.79932 -1.947,-2.45728 -0.9668,-0.65796 -2.5647,-0.65796 l -1.947,0 0,13.97828 q 0,1.78588 0.5371,2.37671 0.5371,0.57739 2.041,0.67138 l 0,1.2085 -8.4595,0 z"
             style="font-style:normal;font-variant:normal;font-weight:normal;font-stretch:normal;font-size:27.5px;font-family:'Aldine721 BT';-inkscape-font-specification:'Aldine721 BT';letter-spacing:0.5px;word-spacing:0px;fill:#2b2a29;fill-opacity:1"
             id="path4507" />
          <path
             d="m 2146.645,-528.55176 0,-0.92651 4.27,-0.25513 0,8.94287 q 0,1.26221 0.47,1.8396 0.4834,0.57739 1.5308,0.57739 0.8862,0 1.6784,-0.30883 0.7923,-0.32227 1.4637,-0.92652 l 0,-6.84814 q 0,-1.31592 -0.4029,-1.70532 -0.3894,-0.38941 -1.5844,-0.44312 l 0,-0.8728 4.458,-0.25513 0,9.6814 q 0,1.20849 0.2954,1.58447 0.2954,0.36255 1.101,0.36255 0.2149,0 0.3223,0 0.1074,-0.0134 0.2014,-0.0134 l 0,1.06079 -4.3908,0.65796 0,-1.81274 q -1.3965,0.96679 -2.4036,1.39648 -1.0071,0.41626 -1.8665,0.41626 -1.6381,0 -2.5378,-1.1145 -0.8997,-1.12793 -0.8997,-3.22266 l 0,-5.80078 q 0,-1.19507 -0.3088,-1.5979 -0.2954,-0.41626 -1.1145,-0.41626 l -0.282,0 z"
             style="font-style:normal;font-variant:normal;font-weight:normal;font-stretch:normal;font-size:27.5px;font-family:'Aldine721 BT';-inkscape-font-specification:'Aldine721 BT';letter-spacing:0.5px;word-spacing:0px;fill:#2b2a29;fill-opacity:1"
             id="path4509" />
          <path
             d="m 2173.3694,-519.47461 q -1.0877,1.53076 -2.4036,2.323 -1.3159,0.77881 -2.7661,0.77881 -2.4573,0 -3.9612,-1.78589 -1.5039,-1.79932 -1.5039,-4.78027 0,-2.94068 1.7859,-4.84742 1.7993,-1.92016 4.5654,-1.92016 1.7456,0 2.9541,0.8728 1.222,0.85937 1.222,2.01416 0,0.51025 -0.4297,0.85937 -0.4163,0.34913 -1.0205,0.34913 -0.6446,0 -1.0608,-1.08765 -0.1612,-0.40283 -0.2686,-0.61768 -0.282,-0.57739 -0.8325,-0.88623 -0.5371,-0.32226 -1.2488,-0.32226 -1.5442,0 -2.4573,1.16821 -0.8996,1.16821 -0.8996,3.15552 0,2.36328 1.1548,3.88061 1.1682,1.50391 2.9675,1.50391 0.8728,0 1.759,-0.34912 0.8997,-0.36255 1.6785,-1.02051 l 0.7654,0.71167 z"
             style="font-style:normal;font-variant:normal;font-weight:normal;font-stretch:normal;font-size:27.5px;font-family:'Aldine721 BT';-inkscape-font-specification:'Aldine721 BT';letter-spacing:0.5px;word-spacing:0px;fill:#2b2a29;fill-opacity:1"
             id="path4511" />
          <path
             d="m 2175.0913,-528.55176 0,-0.92651 4.27,-0.25513 0,8.94287 q 0,1.26221 0.47,1.8396 0.4834,0.57739 1.5308,0.57739 0.8862,0 1.6784,-0.30883 0.7923,-0.32227 1.4637,-0.92652 l 0,-6.84814 q 0,-1.31592 -0.4029,-1.70532 -0.3894,-0.38941 -1.5845,-0.44312 l 0,-0.8728 4.4581,-0.25513 0,9.6814 q 0,1.20849 0.2954,1.58447 0.2954,0.36255 1.101,0.36255 0.2149,0 0.3223,0 0.1074,-0.0134 0.2014,-0.0134 l 0,1.06079 -4.3908,0.65796 0,-1.81274 q -1.3965,0.96679 -2.4036,1.39648 -1.0071,0.41626 -1.8665,0.41626 -1.6382,0 -2.5378,-1.1145 -0.8997,-1.12793 -0.8997,-3.22266 l 0,-5.80078 q 0,-1.19507 -0.3088,-1.5979 -0.2954,-0.41626 -1.1145,-0.41626 l -0.282,0 z"
             style="font-style:normal;font-variant:normal;font-weight:normal;font-stretch:normal;font-size:27.5px;font-family:'Aldine721 BT';-inkscape-font-specification:'Aldine721 BT';letter-spacing:0.5px;word-spacing:0px;fill:#2b2a29;fill-opacity:1"
             id="path4513" />
          <path
             d="m 2191.1003,-516.6145 0,-1.2085 q 1.1414,-0.0806 1.5711,-0.59082 0.4297,-0.52368 0.4297,-1.85303 l 0,-6.6333 -1.8396,-0.8728 0,-0.75195 3.6792,-1.2085 0.6982,0 0,1.8396 q 1.1011,-0.91308 2.1753,-1.36963 1.0877,-0.46997 2.1082,-0.46997 1.101,0 1.8933,0.46997 0.8056,0.46997 1.1548,1.31592 1.101,-0.88623 2.1618,-1.32935 1.0742,-0.45654 2.1082,-0.45654 1.7724,0 2.605,1.04736 0.8325,1.04737 0.8325,3.30323 l 0,5.11596 q 0,1.4502 0.3491,1.90674 0.3625,0.44312 1.3562,0.53711 l 0,1.2085 -6.1633,0 0,-1.2085 q 1.101,-0.094 1.4904,-0.55054 0.4029,-0.45654 0.4029,-1.89331 l 0,-5.16967 q 0,-1.46363 -0.3894,-1.94702 -0.3894,-0.4834 -1.4234,-0.4834 -0.9668,0 -1.7321,0.30883 -0.7654,0.30884 -1.2085,0.87281 l 0,6.41845 q 0,1.4502 0.3491,1.90674 0.3625,0.44312 1.3562,0.53711 l 0,1.2085 -6.1633,0 0.013,-1.2085 q 1.1011,-0.094 1.4905,-0.55054 0.4028,-0.45654 0.4028,-1.89331 l 0,-5.16967 q 0,-1.4502 -0.4028,-1.9336 -0.4029,-0.49682 -1.4502,-0.49682 -0.7386,0 -1.5308,0.28198 -0.7788,0.28198 -1.759,0.89966 l 0,6.41845 q 0,1.42334 0.3894,1.89331 0.4028,0.46998 1.5039,0.55054 l 0,1.2085 -6.4588,0 z"
             style="font-style:normal;font-variant:normal;font-weight:normal;font-stretch:normal;font-size:27.5px;font-family:'Aldine721 BT';-inkscape-font-specification:'Aldine721 BT';letter-spacing:0.5px;word-spacing:0px;fill:#2b2a29;fill-opacity:1"
             id="path4515" />
          <path
             d="m 2225.7202,-517.68872 q -0.47,0.67139 -1.0473,1.03393 -0.5774,0.34913 -1.1817,0.34913 -0.6445,0 -1.1279,-0.45655 -0.4834,-0.45654 -0.7385,-1.31591 -0.9131,0.81909 -1.8262,1.22192 -0.9131,0.40283 -1.8128,0.40283 -1.3696,0 -2.2692,-0.80566 -0.8863,-0.80567 -0.8863,-2.02759 0,-1.73218 1.5711,-2.91382 1.571,-1.18164 5.2234,-2.13501 l 0,-1.82617 q 0,-1.16821 -0.5774,-1.79932 -0.5774,-0.64453 -1.6248,-0.64453 -0.8997,0 -1.4368,0.36255 -0.5236,0.36255 -0.5236,0.95337 0,0.41626 0.2685,0.95337 0.282,0.52368 0.282,0.61767 0,0.22828 -0.6848,0.59082 -0.6848,0.34913 -1.2891,0.34913 -0.3222,0 -0.5505,-0.53711 -0.2283,-0.53711 -0.2283,-1.34278 0,-1.31592 1.4502,-2.18872 1.4636,-0.88623 3.6926,-0.88623 1.9605,0 2.793,0.76538 0.8459,0.76538 0.8459,2.5647 l 0,6.76758 q 0,0.65796 0.1209,0.92651 0.1208,0.25513 0.4028,0.25513 0.2686,0 0.564,-0.094 0.2954,-0.10742 0.5908,-0.28198 l 0,1.14136 z m -4.0954,-5.35767 q -2.229,0.60425 -3.2227,1.31592 -0.9937,0.71167 -0.9937,1.67847 0,0.7251 0.5237,1.20849 0.5371,0.46997 1.3428,0.46997 0.6714,0 1.2354,-0.29541 0.5773,-0.30883 1.1145,-0.93994 l 0,-3.4375 z m -4.0418,-8.16406 3.8806,-4.01489 q 0.47,-0.4834 0.7385,-0.64453 0.282,-0.16114 0.5506,-0.16114 0.4431,0 0.7117,0.25513 0.2819,0.25513 0.2819,0.68482 0,0.29541 -0.2148,0.57739 -0.2014,0.28198 -0.6177,0.55054 l -4.4311,2.75268 -0.8997,0 z"
             style="font-style:normal;font-variant:normal;font-weight:normal;font-stretch:normal;font-size:27.5px;font-family:'Aldine721 BT';-inkscape-font-specification:'Aldine721 BT';letter-spacing:0.5px;word-spacing:0px;fill:#2b2a29;fill-opacity:1"
             id="path4517" />
          <path
             d="m 2227.657,-516.6145 0,-1.2085 q 1.1279,-0.0537 1.5576,-0.57739 0.4431,-0.52368 0.4431,-1.86646 l 0,-6.6333 -1.8396,-0.8728 0,-0.75195 3.6792,-1.2085 0.6983,0 0,1.78589 q 1.0876,-0.88623 2.1618,-1.32935 1.0877,-0.45654 2.1216,-0.45654 1.7725,0 2.5916,1.04736 0.819,1.03394 0.819,3.30323 l 0,5.11596 q 0,1.42334 0.3626,1.89331 0.376,0.46998 1.3696,0.55054 l 0,1.2085 -6.1902,0 0.014,-1.2085 q 1.101,-0.0806 1.5039,-0.55054 0.4162,-0.48339 0.4162,-1.89331 l 0,-5.16967 q 0,-1.4502 -0.4028,-1.9336 -0.4028,-0.49682 -1.4502,-0.49682 -0.7519,0 -1.5576,0.29541 -0.7922,0.28198 -1.759,0.88623 l 0,6.41845 q 0,1.40992 0.4028,1.89331 0.4028,0.46998 1.5173,0.55054 l 0,1.2085 -6.4587,0 z"
             style="font-style:normal;font-variant:normal;font-weight:normal;font-stretch:normal;font-size:27.5px;font-family:'Aldine721 BT';-inkscape-font-specification:'Aldine721 BT';letter-spacing:0.5px;word-spacing:0px;fill:#2b2a29;fill-opacity:1"
             id="path4519" />
        </g>
        <g
           style="font-style:normal;font-weight:normal;font-size:26.64980125px;line-height:125%;font-family:sans-serif;letter-spacing:0px;word-spacing:0px;fill:#2b2a29;fill-opacity:1;stroke:none;stroke-width:1px;stroke-linecap:butt;stroke-linejoin:miter;stroke-opacity:1"
           id="text4502">
          <path
             d="m 2276.1697,-527.5387 q 0.3222,0.0537 0.6579,0.0806 0.3357,0.0134 0.846,0.0134 2.0947,0 3.2898,-1.06079 1.195,-1.07422 1.195,-2.90039 0,-1.70533 -1.2487,-2.75269 -1.2354,-1.04736 -3.263,-1.04736 -0.9131,0 -1.195,0.18799 -0.282,0.17456 -0.282,0.85937 l 0,0.84595 0,5.77392 z m -5.6397,10.6482 0,-1.2085 q 1.4234,-0.17456 1.9739,-0.80566 0.5505,-0.64453 0.5505,-2.30957 l 0,-10.66162 q 0,-2.14844 -0.4968,-2.6587 -0.4968,-0.52368 -2.0276,-0.69824 l 0,-1.12793 6.8213,0 q 4.0686,0 6.0694,1.22193 2.0141,1.20849 2.0141,3.6792 0,1.93359 -1.2085,3.18237 -1.195,1.24878 -3.5852,1.78589 0.5774,0.46997 1.0877,0.96679 0.5102,0.49683 0.9265,0.99366 l 3.9343,4.64599 q 0.027,0.0269 0.081,0.094 1.4233,1.69189 2.1753,1.69189 l 0.054,0 0,1.2085 -3.6255,0 -6.1365,-7.37183 q -1.0608,-1.26221 -1.5979,-1.5979 -0.5237,-0.34912 -1.1279,-0.34912 -0.04,0 -0.1343,0.0134 -0.094,0.0134 -0.1343,0.0134 l 0,4.8877 q 0,1.82617 0.4968,2.44385 0.4969,0.60425 1.9202,0.75195 l 0,1.2085 -8.0298,0 z"
             style="font-style:normal;font-variant:normal;font-weight:normal;font-stretch:normal;font-size:27.5px;font-family:'Aldine721 BT';-inkscape-font-specification:'Aldine721 BT';letter-spacing:0.5px;word-spacing:0px;fill:#2b2a29;fill-opacity:1"
             id="path4522" />
          <path
             d="m 2292.595,-525.99451 5.4651,0 q -0.081,-1.30249 -0.8191,-2.06787 -0.7251,-0.76538 -1.8665,-0.76538 -1.0205,0 -1.7456,0.73853 -0.7117,0.72509 -1.0339,2.09472 z m 8.352,6.27076 q -1.0876,1.61132 -2.2961,2.36328 -1.2085,0.73852 -2.7259,0.73852 -2.5781,0 -4.1625,-1.78589 -1.5845,-1.78589 -1.5845,-4.6997 0,-2.96753 1.6382,-4.94141 1.6516,-1.9873 4.1088,-1.9873 2.0545,0 3.5047,1.47705 1.4502,1.46362 1.6382,3.77319 l -7.1839,0 q -0.9131,0 -1.101,0.10742 -0.188,0.10742 -0.188,0.49683 0,2.12158 1.2219,3.6792 1.2219,1.54419 2.9004,1.54419 0.8862,0 1.759,-0.36255 0.8728,-0.37598 1.7591,-1.14136 l 0.7116,0.73853 z"
             style="font-style:normal;font-variant:normal;font-weight:normal;font-stretch:normal;font-size:27.5px;font-family:'Aldine721 BT';-inkscape-font-specification:'Aldine721 BT';letter-spacing:0.5px;word-spacing:0px;fill:#2b2a29;fill-opacity:1"
             id="path4524" />
          <path
             d="m 2306.9121,-527.04187 0,5.69336 q 0,1.79932 0.7251,2.65869 0.7251,0.85938 2.2156,0.85938 1.5039,0 2.4035,-1.31592 0.8997,-1.32935 0.8997,-3.59864 0,-2.3767 -0.9936,-3.81347 -0.9803,-1.43677 -2.5647,-1.43677 -0.658,0 -1.2757,0.21484 -0.6177,0.21485 -1.4099,0.73853 z m -4.5654,15.37476 0,-1.10108 q 1.1145,-0.12085 1.5576,-0.67139 0.4431,-0.5371 0.4431,-1.85302 l 0,-11.88355 -1.8396,-0.8728 0,-0.75195 3.7061,-1.2085 0.6982,0 0,1.75903 q 1.1279,-0.91308 2.0813,-1.32934 0.9668,-0.42969 1.9067,-0.42969 2.0948,0 3.451,1.66504 1.3562,1.66504 1.3562,4.3103 0,3.0481 -1.8262,5.19654 -1.8262,2.13501 -4.3909,2.13501 -0.6176,0 -1.2756,-0.17457 -0.6445,-0.16113 -1.3025,-0.51025 l 0,2.09473 q 0,1.31592 0.4297,1.85302 0.4431,0.55054 1.571,0.67139 l 0,1.10108 -6.5661,0 z"
             style="font-style:normal;font-variant:normal;font-weight:normal;font-stretch:normal;font-size:27.5px;font-family:'Aldine721 BT';-inkscape-font-specification:'Aldine721 BT';letter-spacing:0.5px;word-spacing:0px;fill:#2b2a29;fill-opacity:1"
             id="path4526" />
          <path
             d="m 2318.1006,-528.82776 0,-0.92651 4.27,-0.25513 0,8.94287 q 0,1.26221 0.47,1.8396 0.4834,0.57739 1.5307,0.57739 0.8863,0 1.6785,-0.30883 0.7922,-0.32227 1.4636,-0.92652 l 0,-6.84814 q 0,-1.31592 -0.4028,-1.70532 -0.3894,-0.38941 -1.5845,-0.44312 l 0,-0.8728 4.458,-0.25513 0,9.6814 q 0,1.20849 0.2954,1.58447 0.2955,0.36255 1.1011,0.36255 0.2149,0 0.3223,0 0.1074,-0.0134 0.2014,-0.0134 l 0,1.06079 -4.3909,0.65796 0,-1.81274 q -1.3965,0.96679 -2.4035,1.39648 -1.0071,0.41626 -1.8665,0.41626 -1.6382,0 -2.5378,-1.1145 -0.8997,-1.12793 -0.8997,-3.22266 l 0,-5.80078 q 0,-1.19507 -0.3088,-1.5979 -0.2954,-0.41626 -1.1145,-0.41626 l -0.282,0 z m 4.1089,-2.65869 3.8806,-4.01489 q 0.47,-0.4834 0.7385,-0.64453 0.282,-0.16114 0.5506,-0.16114 0.4431,0 0.7116,0.25513 0.282,0.25513 0.282,0.68481 0,0.29541 -0.2148,0.5774 -0.2015,0.28198 -0.6177,0.55053 l -4.4312,2.75269 -0.8996,0 z"
             style="font-style:normal;font-variant:normal;font-weight:normal;font-stretch:normal;font-size:27.5px;font-family:'Aldine721 BT';-inkscape-font-specification:'Aldine721 BT';letter-spacing:0.5px;word-spacing:0px;fill:#2b2a29;fill-opacity:1"
             id="path4528" />
          <path
             d="m 2335.345,-533.94373 -1.8396,-0.8728 0,-0.75195 3.706,-1.18164 0.6848,0 0,8.49975 q 1.2354,-0.93994 2.1888,-1.34277 0.9533,-0.41626 1.853,-0.41626 2.0947,0 3.4509,1.66504 1.3696,1.66504 1.3696,4.3103 0,1.12793 -0.2954,2.18872 -0.2954,1.06079 -0.8593,2.01416 -0.8997,1.47705 -2.1753,2.29615 -1.2622,0.80566 -2.6722,0.80566 -1.1816,0 -2.5646,-0.33569 -1.3697,-0.3357 -2.8467,-0.98023 l 0,-15.89844 z m 2.5512,6.90186 0,5.69336 q 0,1.75903 0.752,2.64526 0.7519,0.87281 2.2559,0.87281 1.5039,0 2.3767,-1.31592 0.8862,-1.32935 0.8862,-3.59864 0,-2.3767 -0.9668,-3.81347 -0.9668,-1.43677 -2.5513,-1.43677 -0.6311,0 -1.2488,0.21484 -0.6176,0.20142 -1.5039,0.73853 z"
             style="font-style:normal;font-variant:normal;font-weight:normal;font-stretch:normal;font-size:27.5px;font-family:'Aldine721 BT';-inkscape-font-specification:'Aldine721 BT';letter-spacing:0.5px;word-spacing:0px;fill:#2b2a29;fill-opacity:1"
             id="path4530" />
          <path
             d="m 2349.4473,-516.8905 0,-1.2085 q 1.1413,-0.0537 1.571,-0.57739 0.4431,-0.52368 0.4431,-1.86646 l 0,-13.40088 -1.8396,-0.8728 0,-0.75195 3.7061,-1.18164 0.6848,0 0,16.20727 q 0,1.42334 0.4028,1.89331 0.4029,0.46997 1.4905,0.55054 l 0.013,1.2085 -6.4721,0 z"
             style="font-style:normal;font-variant:normal;font-weight:normal;font-stretch:normal;font-size:27.5px;font-family:'Aldine721 BT';-inkscape-font-specification:'Aldine721 BT';letter-spacing:0.5px;word-spacing:0px;fill:#2b2a29;fill-opacity:1"
             id="path4532" />
          <path
             d="m 2360.1523,-535.20593 q 0,-0.65796 0.4566,-1.12793 0.4565,-0.46997 1.1145,-0.46997 0.6579,0 1.1011,0.46997 0.4565,0.46997 0.4565,1.12793 0,0.65796 -0.4565,1.1145 -0.4432,0.45654 -1.1011,0.45654 -0.658,0 -1.1145,-0.45654 -0.4566,-0.45654 -0.4566,-1.1145 z m 0.2955,8.02978 -1.8396,-0.8728 0,-0.75195 3.6926,-1.2085 0.6848,0 0,9.46655 q 0,1.40992 0.4028,1.89331 0.4029,0.46997 1.5174,0.55054 l 0,1.2085 -6.4588,0 0,-1.2085 q 1.128,-0.0537 1.5576,-0.57739 0.4432,-0.52368 0.4432,-1.86646 l 0,-6.6333 z"
             style="font-style:normal;font-variant:normal;font-weight:normal;font-stretch:normal;font-size:27.5px;font-family:'Aldine721 BT';-inkscape-font-specification:'Aldine721 BT';letter-spacing:0.5px;word-spacing:0px;fill:#2b2a29;fill-opacity:1"
             id="path4534" />
          <path
             d="m 2378.0144,-519.75061 q -1.0876,1.53076 -2.4036,2.323 -1.3159,0.77881 -2.7661,0.77881 -2.4572,0 -3.9612,-1.78589 -1.5039,-1.79932 -1.5039,-4.78028 0,-2.94067 1.7859,-4.84741 1.7993,-1.92016 4.5655,-1.92016 1.7456,0 2.9541,0.8728 1.2219,0.85937 1.2219,2.01416 0,0.51025 -0.4297,0.85937 -0.4163,0.34913 -1.0205,0.34913 -0.6445,0 -1.0608,-1.08765 -0.1611,-0.40283 -0.2686,-0.61768 -0.2819,-0.57739 -0.8325,-0.88623 -0.5371,-0.32226 -1.2488,-0.32226 -1.5441,0 -2.4572,1.16821 -0.8997,1.16821 -0.8997,3.15552 0,2.36328 1.1548,3.88061 1.1682,1.50391 2.9675,1.50391 0.8728,0 1.7591,-0.34912 0.8996,-0.36255 1.6784,-1.02051 l 0.7654,0.71167 z"
             style="font-style:normal;font-variant:normal;font-weight:normal;font-stretch:normal;font-size:27.5px;font-family:'Aldine721 BT';-inkscape-font-specification:'Aldine721 BT';letter-spacing:0.5px;word-spacing:0px;fill:#2b2a29;fill-opacity:1"
             id="path4536" />
          <path
             d="m 2390.8545,-517.96472 q -0.47,0.67139 -1.0474,1.03393 -0.5774,0.34912 -1.1816,0.34912 -0.6445,0 -1.1279,-0.45654 -0.4834,-0.45654 -0.7386,-1.31592 -0.9131,0.8191 -1.8261,1.22193 -0.9131,0.40283 -1.8128,0.40283 -1.3696,0 -2.2693,-0.80566 -0.8862,-0.80567 -0.8862,-2.02759 0,-1.73218 1.571,-2.91382 1.5711,-1.18164 5.2234,-2.13501 l 0,-1.82617 q 0,-1.16821 -0.5774,-1.79932 -0.5774,-0.64453 -1.6247,-0.64453 -0.8997,0 -1.4368,0.36255 -0.5237,0.36255 -0.5237,0.95337 0,0.41626 0.2686,0.95337 0.282,0.52368 0.282,0.61767 0,0.22827 -0.6848,0.59082 -0.6849,0.34912 -1.2891,0.34912 -0.3223,0 -0.5505,-0.5371 -0.2283,-0.53711 -0.2283,-1.34278 0,-1.31592 1.4502,-2.18872 1.4636,-0.88623 3.6926,-0.88623 1.9605,0 2.793,0.76538 0.8459,0.76538 0.8459,2.5647 l 0,6.76758 q 0,0.65796 0.1209,0.92651 0.1208,0.25513 0.4028,0.25513 0.2686,0 0.564,-0.094 0.2954,-0.10742 0.5908,-0.28198 l 0,1.14136 z m -4.0955,-5.35767 q -2.229,0.60425 -3.2226,1.31592 -0.9937,0.71167 -0.9937,1.67847 0,0.72509 0.5237,1.20849 0.5371,0.46997 1.3428,0.46997 0.6714,0 1.2353,-0.29541 0.5774,-0.30883 1.1145,-0.93994 l 0,-3.4375 z"
             style="font-style:normal;font-variant:normal;font-weight:normal;font-stretch:normal;font-size:27.5px;font-family:'Aldine721 BT';-inkscape-font-specification:'Aldine721 BT';letter-spacing:0.5px;word-spacing:0px;fill:#2b2a29;fill-opacity:1"
             id="path4538" />
          <path
             d="m 2405.6582,-526.31677 5.0891,0 -2.4975,-7.31812 -2.5916,7.31812 z m -5.7471,9.42627 0,-1.2085 q 0.9265,-0.17456 1.4771,-0.75195 0.5505,-0.59082 1.2219,-2.47071 l 4.7534,-13.4143 q 0.014,-0.0269 0.054,-0.12085 0.2015,-0.52368 0.2015,-0.79224 0,-0.18799 -0.081,-0.36255 -0.067,-0.17456 -0.2014,-0.34912 l 2.9138,0 5.5322,15.32105 q 0.5371,1.53076 1.1145,2.18872 0.5774,0.64453 1.4099,0.75195 l 0,1.2085 -7.4792,0 0,-1.2085 q 1.1413,-0.13428 1.5576,-0.42969 0.4297,-0.30883 0.4297,-0.95337 0,-0.33569 -0.081,-0.72509 -0.067,-0.38941 -0.2014,-0.75196 l -1.3159,-3.8269 -6.0828,0 -0.9533,3.27637 q -0.1075,0.37597 -0.1746,0.76538 -0.054,0.37597 -0.054,0.68481 0,0.83252 0.4565,1.27564 0.47,0.42968 1.6114,0.68481 l 0,1.2085 -6.1097,0 z"
             style="font-style:normal;font-variant:normal;font-weight:normal;font-stretch:normal;font-size:27.5px;font-family:'Aldine721 BT';-inkscape-font-specification:'Aldine721 BT';letter-spacing:0.5px;word-spacing:0px;fill:#2b2a29;fill-opacity:1"
             id="path4540" />
          <path
             d="m 2420.3782,-516.8905 0,-1.2085 q 1.101,0 1.5307,-0.56396 0.4432,-0.56397 0.4432,-2.10816 l 0,-6.40503 -1.8934,-0.8728 0,-0.75195 3.6792,-1.2085 0.6849,0 0,2.229 q 1.0205,-1.16821 1.7858,-1.71875 0.7654,-0.56396 1.3562,-0.56396 0.7789,0 1.41,0.55054 0.6445,0.53711 0.6445,1.23535 0,0.6311 -0.4431,1.22192 -0.4297,0.59082 -0.8191,0.59082 -0.2954,0 -0.8594,-0.71167 -0.564,-0.71167 -0.9534,-0.71167 -0.5102,0 -1.0608,0.4834 -0.5505,0.4834 -1.0607,1.38306 l 0,5.72021 q 0,1.18164 0.4834,1.70532 0.4834,0.52369 1.5576,0.52369 0.081,0 0.2282,-0.0134 0.1612,-0.0134 0.2417,-0.0134 l 0,1.2085 -6.9555,0 z"
             style="font-style:normal;font-variant:normal;font-weight:normal;font-stretch:normal;font-size:27.5px;font-family:'Aldine721 BT';-inkscape-font-specification:'Aldine721 BT';letter-spacing:0.5px;word-spacing:0px;fill:#2b2a29;fill-opacity:1"
             id="path4542" />
          <path
             d="m 2434.7759,-517.05164 q -0.6311,0.60425 -0.9534,1.12793 -0.3088,0.53711 -0.3088,0.98023 0,0.77881 0.9802,1.26221 0.9936,0.49682 2.5915,0.49682 1.8665,0 3.2093,-0.76538 1.3562,-0.76538 1.3562,-1.78589 0,-0.77881 -0.8057,-1.08764 -0.8056,-0.30884 -3.1555,-0.30884 -1.3159,0 -1.8933,0.0134 -0.5774,0.0134 -1.0205,0.0671 z m 0.1611,-8.99658 q 0,1.57105 0.658,2.51099 0.6579,0.92651 1.7724,0.92651 0.9668,0 1.5308,-0.67138 0.5774,-0.68482 0.5774,-1.82618 0,-1.77246 -0.6311,-2.75268 -0.6311,-0.99365 -1.7591,-0.99365 -1.0205,0 -1.5844,0.73852 -0.564,0.7251 -0.564,2.06787 z m -1.5576,8.68775 q -0.5371,-0.42969 -0.8057,-0.84595 -0.2685,-0.41626 -0.2685,-0.80566 0,-0.52369 0.4834,-1.24878 0.4968,-0.73853 1.5442,-1.77247 -1.034,-0.73852 -1.5577,-1.63818 -0.5236,-0.89966 -0.5236,-1.96045 0,-1.94702 1.3293,-3.16894 1.3428,-1.23535 3.4778,-1.23535 0.8997,0 2.5781,0.40283 1.6785,0.3894 2.5379,0.3894 l 2.0007,0 0,1.79932 q -0.1611,-0.0403 -0.3626,-0.0537 -0.2014,-0.0134 -0.5908,-0.0134 -0.4162,0.0134 -0.7251,0.0403 -0.3088,0.0269 -0.5908,0.10742 0.1209,0.44312 0.1746,0.84595 0.067,0.38941 0.067,0.73853 0,2.09472 -1.3562,3.22265 -1.3562,1.12793 -3.8672,1.12793 -0.282,0 -0.6311,-0.0403 -0.3357,-0.0537 -0.6848,-0.14771 -0.5237,0.52369 -0.7385,0.83252 -0.2014,0.29541 -0.2014,0.53711 0,0.37598 0.3088,0.52369 0.3088,0.13427 1.5039,0.13427 l 0.6042,0 q 0.3626,0 1.1414,-0.0134 0.7788,-0.0134 1.1682,-0.0134 2.1216,0 3.1018,0.75195 0.9937,0.75195 0.9937,2.33643 0,2.13501 -2.0679,3.53149 -2.0679,1.40991 -5.3039,1.40991 -2.0545,0 -3.3436,-0.85937 -1.2756,-0.84595 -1.2756,-2.21558 0,-0.68481 0.4431,-1.32934 0.4566,-0.64454 1.4368,-1.36963 z"
             style="font-style:normal;font-variant:normal;font-weight:normal;font-stretch:normal;font-size:27.5px;font-family:'Aldine721 BT';-inkscape-font-specification:'Aldine721 BT';letter-spacing:0.5px;word-spacing:0px;fill:#2b2a29;fill-opacity:1"
             id="path4544" />
          <path
             d="m 2448.2874,-525.99451 5.465,0 q -0.081,-1.30249 -0.8191,-2.06787 -0.725,-0.76538 -1.8664,-0.76538 -1.0205,0 -1.7456,0.73853 -0.7117,0.72509 -1.0339,2.09472 z m 8.352,6.27076 q -1.0876,1.61132 -2.2961,2.36328 -1.2085,0.73852 -2.7259,0.73852 -2.5781,0 -4.1626,-1.78589 -1.5844,-1.78589 -1.5844,-4.6997 0,-2.96753 1.6381,-4.94141 1.6517,-1.9873 4.1089,-1.9873 2.0545,0 3.5047,1.47705 1.4502,1.46362 1.6382,3.77319 l -7.1839,0 q -0.9131,0 -1.1011,0.10742 -0.1879,0.10742 -0.1879,0.49683 0,2.12158 1.2219,3.6792 1.2219,1.54419 2.9004,1.54419 0.8862,0 1.759,-0.36255 0.8728,-0.37598 1.759,-1.14136 l 0.7117,0.73853 z"
             style="font-style:normal;font-variant:normal;font-weight:normal;font-stretch:normal;font-size:27.5px;font-family:'Aldine721 BT';-inkscape-font-specification:'Aldine721 BT';letter-spacing:0.5px;word-spacing:0px;fill:#2b2a29;fill-opacity:1"
             id="path4546" />
          <path
             d="m 2458.6165,-516.8905 0,-1.2085 q 1.1279,-0.0537 1.5576,-0.57739 0.4431,-0.52368 0.4431,-1.86646 l 0,-6.6333 -1.8396,-0.8728 0,-0.75195 3.6792,-1.2085 0.6982,0 0,1.78589 q 1.0877,-0.88623 2.1619,-1.32935 1.0876,-0.45654 2.1216,-0.45654 1.7724,0 2.5915,1.04736 0.8191,1.03394 0.8191,3.30323 l 0,5.11596 q 0,1.42334 0.3626,1.89331 0.3759,0.46997 1.3696,0.55054 l 0,1.2085 -6.1902,0 0.013,-1.2085 q 1.1011,-0.0806 1.5039,-0.55054 0.4163,-0.48339 0.4163,-1.89331 l 0,-5.16967 q 0,-1.4502 -0.4028,-1.9336 -0.4029,-0.49682 -1.4502,-0.49682 -0.752,0 -1.5576,0.29541 -0.7923,0.28198 -1.7591,0.88623 l 0,6.41845 q 0,1.40992 0.4029,1.89331 0.4028,0.46997 1.5173,0.55054 l 0,1.2085 -6.4587,0 z"
             style="font-style:normal;font-variant:normal;font-weight:normal;font-stretch:normal;font-size:27.5px;font-family:'Aldine721 BT';-inkscape-font-specification:'Aldine721 BT';letter-spacing:0.5px;word-spacing:0px;fill:#2b2a29;fill-opacity:1"
             id="path4548" />
          <path
             d="m 2482.8433,-517.44104 q -0.9534,0.42969 -1.8128,0.64453 -0.8459,0.21484 -1.6516,0.21484 -1.3696,0 -1.9336,-0.72509 -0.564,-0.73853 -0.564,-2.71241 l 0,-8.55346 -1.8396,0 0,-0.75195 q 0.8594,-0.30884 1.7457,-0.99366 0.8996,-0.69824 1.8798,-1.81274 l 0.6311,0 0,2.37671 3.3033,0 0,1.18164 -3.3033,0 0,8.29834 q 0,1.19507 0.282,1.58447 0.282,0.37598 1.0608,0.37598 0.2686,-0.0134 0.7922,-0.0671 0.5372,-0.0537 1.41,-0.18799 l 0,1.12793 z"
             style="font-style:normal;font-variant:normal;font-weight:normal;font-stretch:normal;font-size:27.5px;font-family:'Aldine721 BT';-inkscape-font-specification:'Aldine721 BT';letter-spacing:0.5px;word-spacing:0px;fill:#2b2a29;fill-opacity:1"
             id="path4550" />
          <path
             d="m 2486.6465,-535.20593 q 0,-0.65796 0.4565,-1.12793 0.4566,-0.46997 1.1145,-0.46997 0.658,0 1.1011,0.46997 0.4565,0.46997 0.4565,1.12793 0,0.65796 -0.4565,1.1145 -0.4431,0.45654 -1.1011,0.45654 -0.6579,0 -1.1145,-0.45654 -0.4565,-0.45654 -0.4565,-1.1145 z m 0.2954,8.02978 -1.8396,-0.8728 0,-0.75195 3.6926,-1.2085 0.6848,0 0,9.46655 q 0,1.40992 0.4029,1.89331 0.4028,0.46997 1.5173,0.55054 l 0,1.2085 -6.4587,0 0,-1.2085 q 1.1279,-0.0537 1.5576,-0.57739 0.4431,-0.52368 0.4431,-1.86646 l 0,-6.6333 z"
             style="font-style:normal;font-variant:normal;font-weight:normal;font-stretch:normal;font-size:27.5px;font-family:'Aldine721 BT';-inkscape-font-specification:'Aldine721 BT';letter-spacing:0.5px;word-spacing:0px;fill:#2b2a29;fill-opacity:1"
             id="path4552" />
          <path
             d="m 2493.7932,-516.8905 0,-1.2085 q 1.1279,-0.0537 1.5576,-0.57739 0.4431,-0.52368 0.4431,-1.86646 l 0,-6.6333 -1.8396,-0.8728 0,-0.75195 3.6792,-1.2085 0.6983,0 0,1.78589 q 1.0876,-0.88623 2.1619,-1.32935 1.0876,-0.45654 2.1215,-0.45654 1.7725,0 2.5916,1.04736 0.8191,1.03394 0.8191,3.30323 l 0,5.11596 q 0,1.42334 0.3625,1.89331 0.376,0.46997 1.3697,0.55054 l 0,1.2085 -6.1902,0 0.013,-1.2085 q 1.1011,-0.0806 1.5039,-0.55054 0.4163,-0.48339 0.4163,-1.89331 l 0,-5.16967 q 0,-1.4502 -0.4029,-1.9336 -0.4028,-0.49682 -1.4502,-0.49682 -0.7519,0 -1.5576,0.29541 -0.7922,0.28198 -1.759,0.88623 l 0,6.41845 q 0,1.40992 0.4028,1.89331 0.4029,0.46997 1.5174,0.55054 l 0,1.2085 -6.4588,0 z"
             style="font-style:normal;font-variant:normal;font-weight:normal;font-stretch:normal;font-size:27.5px;font-family:'Aldine721 BT';-inkscape-font-specification:'Aldine721 BT';letter-spacing:0.5px;word-spacing:0px;fill:#2b2a29;fill-opacity:1"
             id="path4554" />
          <path
             d="m 2521.1084,-517.96472 q -0.47,0.67139 -1.0474,1.03393 -0.5774,0.34912 -1.1816,0.34912 -0.6445,0 -1.1279,-0.45654 -0.4834,-0.45654 -0.7386,-1.31592 -0.913,0.8191 -1.8261,1.22193 -0.9131,0.40283 -1.8128,0.40283 -1.3696,0 -2.2693,-0.80566 -0.8862,-0.80567 -0.8862,-2.02759 0,-1.73218 1.5711,-2.91382 1.571,-1.18164 5.2233,-2.13501 l 0,-1.82617 q 0,-1.16821 -0.5774,-1.79932 -0.5773,-0.64453 -1.6247,-0.64453 -0.8997,0 -1.4368,0.36255 -0.5237,0.36255 -0.5237,0.95337 0,0.41626 0.2686,0.95337 0.282,0.52368 0.282,0.61767 0,0.22827 -0.6848,0.59082 -0.6848,0.34912 -1.2891,0.34912 -0.3223,0 -0.5505,-0.5371 -0.2283,-0.53711 -0.2283,-1.34278 0,-1.31592 1.4502,-2.18872 1.4636,-0.88623 3.6926,-0.88623 1.9605,0 2.793,0.76538 0.8459,0.76538 0.8459,2.5647 l 0,6.76758 q 0,0.65796 0.1209,0.92651 0.1208,0.25513 0.4028,0.25513 0.2686,0 0.564,-0.094 0.2954,-0.10742 0.5908,-0.28198 l 0,1.14136 z m -4.0955,-5.35767 q -2.229,0.60425 -3.2226,1.31592 -0.9937,0.71167 -0.9937,1.67847 0,0.72509 0.5237,1.20849 0.5371,0.46997 1.3428,0.46997 0.6714,0 1.2353,-0.29541 0.5774,-0.30883 1.1145,-0.93994 l 0,-3.4375 z"
             style="font-style:normal;font-variant:normal;font-weight:normal;font-stretch:normal;font-size:27.5px;font-family:'Aldine721 BT';-inkscape-font-specification:'Aldine721 BT';letter-spacing:0.5px;word-spacing:0px;fill:#2b2a29;fill-opacity:1"
             id="path4556" />
        </g>
        <path
           style="opacity:1;fill:#000000;fill-opacity:1;stroke:none;stroke-width:0.5;stroke-miterlimit:4;stroke-dasharray:none;stroke-dashoffset:0;stroke-opacity:1"
           d="m 2250.4465,-524.40533 13.8132,0 0,1.84884 -13.8132,0 z"
           id="rect4506" />
        <path
           style="opacity:1;fill:#2b2a29;fill-opacity:1;stroke:none;stroke-width:0.5;stroke-miterlimit:4;stroke-dasharray:none;stroke-dashoffset:0;stroke-opacity:1"
           d="m 2109.2312,-524.23572 13.8131,0 0,1.84884 -13.8131,0 z"
           id="rect4509" />
      </g>
    </g>
  </g>
</svg>
